ISO-10303-21;
HEADER;
/* Generated by software containing ST-Developer
 * from STEP Tools, Inc. (www.steptools.com) 
 */

FILE_DESCRIPTION(
/* description */ (''),
/* implementation_level */ '2;1');

FILE_NAME(
/* name */ 'Bottom_case.step',
/* time_stamp */ '2026-09-06T22:12:12+02:00',
/* author */ (''),
/* organization */ (''),
/* preprocessor_version */ 'ST-DEVELOPER v20.2',
/* originating_system */ 'Autodesk Translation Framework v15.15.0.0',
/* authorisation */ '');

FILE_SCHEMA (('AUTOMOTIVE_DESIGN { 1 0 10303 214 3 1 1 }'));
ENDSEC;

DATA;
#10=MECHANICAL_DESIGN_GEOMETRIC_PRESENTATION_REPRESENTATION('',(#13),#1766);
#11=SHAPE_REPRESENTATION_RELATIONSHIP('SRR','None',#1773,#12);
#12=ADVANCED_BREP_SHAPE_REPRESENTATION('',(#14),#1765);
#13=STYLED_ITEM('',(#1782),#14);
#14=MANIFOLD_SOLID_BREP('Corps1',#1024);
#15=FACE_BOUND('',#158,.T.);
#16=FACE_BOUND('',#159,.T.);
#17=FACE_BOUND('',#160,.T.);
#18=FACE_BOUND('',#161,.T.);
#19=FACE_BOUND('',#165,.T.);
#20=FACE_BOUND('',#170,.T.);
#21=FACE_BOUND('',#173,.T.);
#22=FACE_BOUND('',#176,.T.);
#23=FACE_BOUND('',#179,.T.);
#24=FACE_BOUND('',#198,.T.);
#25=FACE_BOUND('',#199,.T.);
#26=FACE_BOUND('',#200,.T.);
#27=FACE_BOUND('',#201,.T.);
#28=SPHERICAL_SURFACE('',#1056,2.00000000000003);
#29=SPHERICAL_SURFACE('',#1060,1.99999999999989);
#30=SPHERICAL_SURFACE('',#1065,1.99999999999989);
#31=SPHERICAL_SURFACE('',#1069,2.00000000000003);
#32=SPHERICAL_SURFACE('',#1073,2.00000000000003);
#33=SPHERICAL_SURFACE('',#1079,2.00000000000003);
#34=SPHERICAL_SURFACE('',#1083,1.99999999999999);
#35=SPHERICAL_SURFACE('',#1087,1.99999999999989);
#36=PLANE('',#1047);
#37=PLANE('',#1053);
#38=PLANE('',#1054);
#39=PLANE('',#1055);
#40=PLANE('',#1097);
#41=PLANE('',#1098);
#42=PLANE('',#1103);
#43=PLANE('',#1104);
#44=PLANE('',#1105);
#45=PLANE('',#1106);
#46=PLANE('',#1107);
#47=PLANE('',#1110);
#48=PLANE('',#1114);
#49=PLANE('',#1118);
#50=PLANE('',#1122);
#51=PLANE('',#1124);
#52=PLANE('',#1125);
#53=PLANE('',#1126);
#54=PLANE('',#1138);
#55=PLANE('',#1142);
#56=PLANE('',#1145);
#57=PLANE('',#1148);
#58=PLANE('',#1151);
#59=PLANE('',#1152);
#60=PLANE('',#1153);
#61=ELLIPSE('',#1042,2.82842712474617,2.);
#62=ELLIPSE('',#1045,2.82842712474617,2.);
#63=ELLIPSE('',#1049,2.82842712474617,2.);
#64=ELLIPSE('',#1051,2.82842712474621,2.);
#65=FACE_OUTER_BOUND('',#127,.T.);
#66=FACE_OUTER_BOUND('',#128,.T.);
#67=FACE_OUTER_BOUND('',#129,.T.);
#68=FACE_OUTER_BOUND('',#130,.T.);
#69=FACE_OUTER_BOUND('',#131,.T.);
#70=FACE_OUTER_BOUND('',#132,.T.);
#71=FACE_OUTER_BOUND('',#133,.T.);
#72=FACE_OUTER_BOUND('',#134,.T.);
#73=FACE_OUTER_BOUND('',#135,.T.);
#74=FACE_OUTER_BOUND('',#136,.T.);
#75=FACE_OUTER_BOUND('',#137,.T.);
#76=FACE_OUTER_BOUND('',#138,.T.);
#77=FACE_OUTER_BOUND('',#139,.T.);
#78=FACE_OUTER_BOUND('',#140,.T.);
#79=FACE_OUTER_BOUND('',#141,.T.);
#80=FACE_OUTER_BOUND('',#142,.T.);
#81=FACE_OUTER_BOUND('',#143,.T.);
#82=FACE_OUTER_BOUND('',#144,.T.);
#83=FACE_OUTER_BOUND('',#145,.T.);
#84=FACE_OUTER_BOUND('',#146,.T.);
#85=FACE_OUTER_BOUND('',#147,.T.);
#86=FACE_OUTER_BOUND('',#148,.T.);
#87=FACE_OUTER_BOUND('',#149,.T.);
#88=FACE_OUTER_BOUND('',#150,.T.);
#89=FACE_OUTER_BOUND('',#151,.T.);
#90=FACE_OUTER_BOUND('',#152,.T.);
#91=FACE_OUTER_BOUND('',#153,.T.);
#92=FACE_OUTER_BOUND('',#154,.T.);
#93=FACE_OUTER_BOUND('',#155,.T.);
#94=FACE_OUTER_BOUND('',#156,.T.);
#95=FACE_OUTER_BOUND('',#157,.T.);
#96=FACE_OUTER_BOUND('',#162,.T.);
#97=FACE_OUTER_BOUND('',#163,.T.);
#98=FACE_OUTER_BOUND('',#164,.T.);
#99=FACE_OUTER_BOUND('',#166,.T.);
#100=FACE_OUTER_BOUND('',#167,.T.);
#101=FACE_OUTER_BOUND('',#168,.T.);
#102=FACE_OUTER_BOUND('',#169,.T.);
#103=FACE_OUTER_BOUND('',#171,.T.);
#104=FACE_OUTER_BOUND('',#172,.T.);
#105=FACE_OUTER_BOUND('',#174,.T.);
#106=FACE_OUTER_BOUND('',#175,.T.);
#107=FACE_OUTER_BOUND('',#177,.T.);
#108=FACE_OUTER_BOUND('',#178,.T.);
#109=FACE_OUTER_BOUND('',#180,.T.);
#110=FACE_OUTER_BOUND('',#181,.T.);
#111=FACE_OUTER_BOUND('',#182,.T.);
#112=FACE_OUTER_BOUND('',#183,.T.);
#113=FACE_OUTER_BOUND('',#184,.T.);
#114=FACE_OUTER_BOUND('',#185,.T.);
#115=FACE_OUTER_BOUND('',#186,.T.);
#116=FACE_OUTER_BOUND('',#187,.T.);
#117=FACE_OUTER_BOUND('',#188,.T.);
#118=FACE_OUTER_BOUND('',#189,.T.);
#119=FACE_OUTER_BOUND('',#190,.T.);
#120=FACE_OUTER_BOUND('',#191,.T.);
#121=FACE_OUTER_BOUND('',#192,.T.);
#122=FACE_OUTER_BOUND('',#193,.T.);
#123=FACE_OUTER_BOUND('',#194,.T.);
#124=FACE_OUTER_BOUND('',#195,.T.);
#125=FACE_OUTER_BOUND('',#196,.T.);
#126=FACE_OUTER_BOUND('',#197,.T.);
#127=EDGE_LOOP('',(#651,#652,#653,#654));
#128=EDGE_LOOP('',(#655,#656,#657,#658));
#129=EDGE_LOOP('',(#659,#660,#661,#662));
#130=EDGE_LOOP('',(#663,#664,#665,#666,#667,#668,#669,#670));
#131=EDGE_LOOP('',(#671,#672,#673,#674));
#132=EDGE_LOOP('',(#675,#676,#677,#678));
#133=EDGE_LOOP('',(#679,#680,#681,#682));
#134=EDGE_LOOP('',(#683,#684,#685,#686,#687,#688,#689,#690));
#135=EDGE_LOOP('',(#691,#692,#693,#694));
#136=EDGE_LOOP('',(#695,#696,#697,#698,#699,#700,#701,#702));
#137=EDGE_LOOP('',(#703,#704,#705));
#138=EDGE_LOOP('',(#706,#707,#708));
#139=EDGE_LOOP('',(#709,#710,#711,#712));
#140=EDGE_LOOP('',(#713,#714,#715));
#141=EDGE_LOOP('',(#716,#717,#718));
#142=EDGE_LOOP('',(#719,#720,#721));
#143=EDGE_LOOP('',(#722,#723,#724,#725));
#144=EDGE_LOOP('',(#726,#727,#728,#729));
#145=EDGE_LOOP('',(#730,#731,#732));
#146=EDGE_LOOP('',(#733,#734,#735,#736));
#147=EDGE_LOOP('',(#737,#738,#739));
#148=EDGE_LOOP('',(#740,#741,#742));
#149=EDGE_LOOP('',(#743,#744,#745,#746));
#150=EDGE_LOOP('',(#747,#748,#749,#750));
#151=EDGE_LOOP('',(#751,#752,#753,#754));
#152=EDGE_LOOP('',(#755,#756,#757,#758));
#153=EDGE_LOOP('',(#759,#760,#761,#762));
#154=EDGE_LOOP('',(#763,#764,#765,#766));
#155=EDGE_LOOP('',(#767,#768,#769,#770));
#156=EDGE_LOOP('',(#771,#772,#773,#774));
#157=EDGE_LOOP('',(#775,#776,#777,#778,#779,#780,#781,#782));
#158=EDGE_LOOP('',(#783));
#159=EDGE_LOOP('',(#784));
#160=EDGE_LOOP('',(#785));
#161=EDGE_LOOP('',(#786));
#162=EDGE_LOOP('',(#787,#788,#789,#790));
#163=EDGE_LOOP('',(#791,#792,#793,#794));
#164=EDGE_LOOP('',(#795,#796,#797,#798));
#165=EDGE_LOOP('',(#799,#800,#801,#802));
#166=EDGE_LOOP('',(#803,#804,#805,#806));
#167=EDGE_LOOP('',(#807,#808,#809,#810));
#168=EDGE_LOOP('',(#811,#812,#813,#814));
#169=EDGE_LOOP('',(#815));
#170=EDGE_LOOP('',(#816));
#171=EDGE_LOOP('',(#817,#818,#819,#820));
#172=EDGE_LOOP('',(#821));
#173=EDGE_LOOP('',(#822));
#174=EDGE_LOOP('',(#823,#824,#825,#826));
#175=EDGE_LOOP('',(#827));
#176=EDGE_LOOP('',(#828));
#177=EDGE_LOOP('',(#829,#830,#831,#832));
#178=EDGE_LOOP('',(#833));
#179=EDGE_LOOP('',(#834));
#180=EDGE_LOOP('',(#835,#836,#837,#838));
#181=EDGE_LOOP('',(#839,#840,#841,#842,#843,#844,#845,#846));
#182=EDGE_LOOP('',(#847,#848,#849,#850));
#183=EDGE_LOOP('',(#851,#852,#853,#854));
#184=EDGE_LOOP('',(#855,#856,#857,#858));
#185=EDGE_LOOP('',(#859,#860,#861,#862));
#186=EDGE_LOOP('',(#863,#864,#865,#866));
#187=EDGE_LOOP('',(#867,#868,#869,#870));
#188=EDGE_LOOP('',(#871,#872,#873,#874,#875,#876,#877,#878,#879,#880));
#189=EDGE_LOOP('',(#881,#882,#883,#884));
#190=EDGE_LOOP('',(#885,#886,#887,#888));
#191=EDGE_LOOP('',(#889,#890,#891,#892));
#192=EDGE_LOOP('',(#893,#894,#895,#896));
#193=EDGE_LOOP('',(#897,#898,#899,#900));
#194=EDGE_LOOP('',(#901,#902,#903,#904));
#195=EDGE_LOOP('',(#905,#906,#907,#908));
#196=EDGE_LOOP('',(#909,#910,#911,#912));
#197=EDGE_LOOP('',(#913,#914,#915,#916,#917,#918,#919,#920,#921,#922,#923,
#924,#925,#926,#927,#928));
#198=EDGE_LOOP('',(#929));
#199=EDGE_LOOP('',(#930));
#200=EDGE_LOOP('',(#931));
#201=EDGE_LOOP('',(#932));
#202=LINE('',#1481,#289);
#203=LINE('',#1484,#290);
#204=LINE('',#1490,#291);
#205=LINE('',#1493,#292);
#206=LINE('',#1499,#293);
#207=LINE('',#1502,#294);
#208=LINE('',#1505,#295);
#209=LINE('',#1507,#296);
#210=LINE('',#1508,#297);
#211=LINE('',#1510,#298);
#212=LINE('',#1512,#299);
#213=LINE('',#1513,#300);
#214=LINE('',#1516,#301);
#215=LINE('',#1520,#302);
#216=LINE('',#1523,#303);
#217=LINE('',#1526,#304);
#218=LINE('',#1528,#305);
#219=LINE('',#1530,#306);
#220=LINE('',#1532,#307);
#221=LINE('',#1533,#308);
#222=LINE('',#1534,#309);
#223=LINE('',#1537,#310);
#224=LINE('',#1538,#311);
#225=LINE('',#1540,#312);
#226=LINE('',#1542,#313);
#227=LINE('',#1544,#314);
#228=LINE('',#1546,#315);
#229=LINE('',#1547,#316);
#230=LINE('',#1563,#317);
#231=LINE('',#1564,#318);
#232=LINE('',#1586,#319);
#233=LINE('',#1587,#320);
#234=LINE('',#1589,#321);
#235=LINE('',#1590,#322);
#236=LINE('',#1596,#323);
#237=LINE('',#1608,#324);
#238=LINE('',#1610,#325);
#239=LINE('',#1611,#326);
#240=LINE('',#1613,#327);
#241=LINE('',#1615,#328);
#242=LINE('',#1616,#329);
#243=LINE('',#1618,#330);
#244=LINE('',#1619,#331);
#245=LINE('',#1621,#332);
#246=LINE('',#1622,#333);
#247=LINE('',#1624,#334);
#248=LINE('',#1625,#335);
#249=LINE('',#1641,#336);
#250=LINE('',#1643,#337);
#251=LINE('',#1645,#338);
#252=LINE('',#1646,#339);
#253=LINE('',#1649,#340);
#254=LINE('',#1651,#341);
#255=LINE('',#1652,#342);
#256=LINE('',#1655,#343);
#257=LINE('',#1656,#344);
#258=LINE('',#1659,#345);
#259=LINE('',#1666,#346);
#260=LINE('',#1673,#347);
#261=LINE('',#1680,#348);
#262=LINE('',#1686,#349);
#263=LINE('',#1688,#350);
#264=LINE('',#1690,#351);
#265=LINE('',#1691,#352);
#266=LINE('',#1694,#353);
#267=LINE('',#1696,#354);
#268=LINE('',#1697,#355);
#269=LINE('',#1701,#356);
#270=LINE('',#1705,#357);
#271=LINE('',#1709,#358);
#272=LINE('',#1713,#359);
#273=LINE('',#1717,#360);
#274=LINE('',#1721,#361);
#275=LINE('',#1725,#362);
#276=LINE('',#1729,#363);
#277=LINE('',#1732,#364);
#278=LINE('',#1735,#365);
#279=LINE('',#1738,#366);
#280=LINE('',#1739,#367);
#281=LINE('',#1742,#368);
#282=LINE('',#1745,#369);
#283=LINE('',#1747,#370);
#284=LINE('',#1750,#371);
#285=LINE('',#1753,#372);
#286=LINE('',#1757,#373);
#287=LINE('',#1759,#374);
#288=LINE('',#1761,#375);
#289=VECTOR('',#1160,2.);
#290=VECTOR('',#1163,10.);
#291=VECTOR('',#1168,10.);
#292=VECTOR('',#1171,10.);
#293=VECTOR('',#1176,10.);
#294=VECTOR('',#1179,10.);
#295=VECTOR('',#1182,10.);
#296=VECTOR('',#1183,10.);
#297=VECTOR('',#1184,10.);
#298=VECTOR('',#1185,10.);
#299=VECTOR('',#1186,10.);
#300=VECTOR('',#1187,10.);
#301=VECTOR('',#1190,10.);
#302=VECTOR('',#1195,10.);
#303=VECTOR('',#1200,10.);
#304=VECTOR('',#1203,10.);
#305=VECTOR('',#1204,10.);
#306=VECTOR('',#1205,10.);
#307=VECTOR('',#1206,10.);
#308=VECTOR('',#1207,10.);
#309=VECTOR('',#1208,10.);
#310=VECTOR('',#1211,10.);
#311=VECTOR('',#1212,10.);
#312=VECTOR('',#1215,10.);
#313=VECTOR('',#1216,10.);
#314=VECTOR('',#1217,10.);
#315=VECTOR('',#1218,10.);
#316=VECTOR('',#1219,10.);
#317=VECTOR('',#1238,10.);
#318=VECTOR('',#1239,10.);
#319=VECTOR('',#1266,10.);
#320=VECTOR('',#1267,10.);
#321=VECTOR('',#1270,10.);
#322=VECTOR('',#1271,10.);
#323=VECTOR('',#1280,10.);
#324=VECTOR('',#1297,10.);
#325=VECTOR('',#1300,10.);
#326=VECTOR('',#1301,10.);
#327=VECTOR('',#1304,10.);
#328=VECTOR('',#1307,10.);
#329=VECTOR('',#1308,10.);
#330=VECTOR('',#1311,10.);
#331=VECTOR('',#1312,10.);
#332=VECTOR('',#1315,10.);
#333=VECTOR('',#1316,10.);
#334=VECTOR('',#1319,10.);
#335=VECTOR('',#1320,10.);
#336=VECTOR('',#1339,10.);
#337=VECTOR('',#1340,10.);
#338=VECTOR('',#1341,10.);
#339=VECTOR('',#1342,10.);
#340=VECTOR('',#1345,10.);
#341=VECTOR('',#1346,10.);
#342=VECTOR('',#1347,10.);
#343=VECTOR('',#1350,10.);
#344=VECTOR('',#1351,10.);
#345=VECTOR('',#1354,4.8);
#346=VECTOR('',#1363,4.8);
#347=VECTOR('',#1372,4.8);
#348=VECTOR('',#1381,4.8);
#349=VECTOR('',#1390,10.);
#350=VECTOR('',#1393,10.);
#351=VECTOR('',#1394,10.);
#352=VECTOR('',#1395,10.);
#353=VECTOR('',#1398,10.);
#354=VECTOR('',#1399,10.);
#355=VECTOR('',#1400,10.);
#356=VECTOR('',#1405,1.6);
#357=VECTOR('',#1410,1.6);
#358=VECTOR('',#1415,1.6);
#359=VECTOR('',#1420,1.6);
#360=VECTOR('',#1423,10.);
#361=VECTOR('',#1426,10.);
#362=VECTOR('',#1431,10.);
#363=VECTOR('',#1434,10.);
#364=VECTOR('',#1437,10.);
#365=VECTOR('',#1440,10.);
#366=VECTOR('',#1443,10.);
#367=VECTOR('',#1444,10.);
#368=VECTOR('',#1447,10.);
#369=VECTOR('',#1450,10.);
#370=VECTOR('',#1453,10.);
#371=VECTOR('',#1456,10.);
#372=VECTOR('',#1461,10.);
#373=VECTOR('',#1466,10.);
#374=VECTOR('',#1469,10.);
#375=VECTOR('',#1472,10.);
#376=CIRCLE('',#1039,2.00000000000001);
#377=CIRCLE('',#1040,2.00000000000001);
#378=CIRCLE('',#1043,2.);
#379=CIRCLE('',#1046,1.99999999999999);
#380=CIRCLE('',#1057,2.00000000000003);
#381=CIRCLE('',#1058,2.00000000000003);
#382=CIRCLE('',#1059,2.);
#383=CIRCLE('',#1061,2.00000000000003);
#384=CIRCLE('',#1062,1.99999999999989);
#385=CIRCLE('',#1063,2.);
#386=CIRCLE('',#1066,2.00000000000003);
#387=CIRCLE('',#1067,1.99999999999989);
#388=CIRCLE('',#1068,2.);
#389=CIRCLE('',#1070,1.99999999999999);
#390=CIRCLE('',#1071,2.00000000000003);
#391=CIRCLE('',#1072,2.);
#392=CIRCLE('',#1074,2.00000000000003);
#393=CIRCLE('',#1075,2.00000000000003);
#394=CIRCLE('',#1076,2.);
#395=CIRCLE('',#1080,2.00000000000003);
#396=CIRCLE('',#1081,2.00000000000003);
#397=CIRCLE('',#1084,2.00000000000003);
#398=CIRCLE('',#1085,1.99999999999999);
#399=CIRCLE('',#1086,2.);
#400=CIRCLE('',#1088,1.99999999999989);
#401=CIRCLE('',#1089,2.);
#402=CIRCLE('',#1099,4.8);
#403=CIRCLE('',#1100,4.8);
#404=CIRCLE('',#1101,4.8);
#405=CIRCLE('',#1102,4.8);
#406=CIRCLE('',#1109,4.8);
#407=CIRCLE('',#1111,1.6);
#408=CIRCLE('',#1113,4.8);
#409=CIRCLE('',#1115,1.6);
#410=CIRCLE('',#1117,4.8);
#411=CIRCLE('',#1119,1.6);
#412=CIRCLE('',#1121,4.8);
#413=CIRCLE('',#1123,1.6);
#414=CIRCLE('',#1128,1.6);
#415=CIRCLE('',#1130,1.6);
#416=CIRCLE('',#1132,1.6);
#417=CIRCLE('',#1134,1.6);
#418=CIRCLE('',#1136,5.49999999999997);
#419=CIRCLE('',#1137,5.49999999999997);
#420=CIRCLE('',#1139,5.49999999999997);
#421=CIRCLE('',#1140,5.);
#422=CIRCLE('',#1141,5.);
#423=CIRCLE('',#1144,5.);
#424=CIRCLE('',#1147,5.);
#425=CIRCLE('',#1150,5.49999999999997);
#426=VERTEX_POINT('',#1477);
#427=VERTEX_POINT('',#1478);
#428=VERTEX_POINT('',#1480);
#429=VERTEX_POINT('',#1482);
#430=VERTEX_POINT('',#1486);
#431=VERTEX_POINT('',#1487);
#432=VERTEX_POINT('',#1489);
#433=VERTEX_POINT('',#1491);
#434=VERTEX_POINT('',#1495);
#435=VERTEX_POINT('',#1496);
#436=VERTEX_POINT('',#1498);
#437=VERTEX_POINT('',#1500);
#438=VERTEX_POINT('',#1504);
#439=VERTEX_POINT('',#1506);
#440=VERTEX_POINT('',#1509);
#441=VERTEX_POINT('',#1511);
#442=VERTEX_POINT('',#1515);
#443=VERTEX_POINT('',#1519);
#444=VERTEX_POINT('',#1525);
#445=VERTEX_POINT('',#1527);
#446=VERTEX_POINT('',#1529);
#447=VERTEX_POINT('',#1531);
#448=VERTEX_POINT('',#1536);
#449=VERTEX_POINT('',#1541);
#450=VERTEX_POINT('',#1543);
#451=VERTEX_POINT('',#1545);
#452=VERTEX_POINT('',#1549);
#453=VERTEX_POINT('',#1550);
#454=VERTEX_POINT('',#1552);
#455=VERTEX_POINT('',#1556);
#456=VERTEX_POINT('',#1557);
#457=VERTEX_POINT('',#1559);
#458=VERTEX_POINT('',#1566);
#459=VERTEX_POINT('',#1567);
#460=VERTEX_POINT('',#1569);
#461=VERTEX_POINT('',#1573);
#462=VERTEX_POINT('',#1575);
#463=VERTEX_POINT('',#1579);
#464=VERTEX_POINT('',#1580);
#465=VERTEX_POINT('',#1582);
#466=VERTEX_POINT('',#1592);
#467=VERTEX_POINT('',#1598);
#468=VERTEX_POINT('',#1599);
#469=VERTEX_POINT('',#1604);
#470=VERTEX_POINT('',#1628);
#471=VERTEX_POINT('',#1630);
#472=VERTEX_POINT('',#1632);
#473=VERTEX_POINT('',#1634);
#474=VERTEX_POINT('',#1639);
#475=VERTEX_POINT('',#1640);
#476=VERTEX_POINT('',#1642);
#477=VERTEX_POINT('',#1644);
#478=VERTEX_POINT('',#1648);
#479=VERTEX_POINT('',#1650);
#480=VERTEX_POINT('',#1654);
#481=VERTEX_POINT('',#1658);
#482=VERTEX_POINT('',#1662);
#483=VERTEX_POINT('',#1665);
#484=VERTEX_POINT('',#1669);
#485=VERTEX_POINT('',#1672);
#486=VERTEX_POINT('',#1676);
#487=VERTEX_POINT('',#1679);
#488=VERTEX_POINT('',#1683);
#489=VERTEX_POINT('',#1689);
#490=VERTEX_POINT('',#1693);
#491=VERTEX_POINT('',#1695);
#492=VERTEX_POINT('',#1699);
#493=VERTEX_POINT('',#1703);
#494=VERTEX_POINT('',#1707);
#495=VERTEX_POINT('',#1711);
#496=VERTEX_POINT('',#1715);
#497=VERTEX_POINT('',#1716);
#498=VERTEX_POINT('',#1718);
#499=VERTEX_POINT('',#1720);
#500=VERTEX_POINT('',#1724);
#501=VERTEX_POINT('',#1726);
#502=VERTEX_POINT('',#1728);
#503=VERTEX_POINT('',#1731);
#504=VERTEX_POINT('',#1733);
#505=VERTEX_POINT('',#1737);
#506=VERTEX_POINT('',#1741);
#507=VERTEX_POINT('',#1743);
#508=VERTEX_POINT('',#1749);
#509=VERTEX_POINT('',#1755);
#510=EDGE_CURVE('',#426,#427,#376,.T.);
#511=EDGE_CURVE('',#426,#428,#202,.T.);
#512=EDGE_CURVE('',#428,#429,#377,.F.);
#513=EDGE_CURVE('',#429,#427,#203,.T.);
#514=EDGE_CURVE('',#430,#431,#61,.T.);
#515=EDGE_CURVE('',#430,#432,#204,.T.);
#516=EDGE_CURVE('',#432,#433,#378,.F.);
#517=EDGE_CURVE('',#433,#431,#205,.T.);
#518=EDGE_CURVE('',#434,#435,#62,.T.);
#519=EDGE_CURVE('',#434,#436,#206,.T.);
#520=EDGE_CURVE('',#436,#437,#379,.F.);
#521=EDGE_CURVE('',#437,#435,#207,.T.);
#522=EDGE_CURVE('',#434,#438,#208,.T.);
#523=EDGE_CURVE('',#439,#438,#209,.T.);
#524=EDGE_CURVE('',#439,#431,#210,.T.);
#525=EDGE_CURVE('',#440,#433,#211,.T.);
#526=EDGE_CURVE('',#441,#440,#212,.T.);
#527=EDGE_CURVE('',#436,#441,#213,.T.);
#528=EDGE_CURVE('',#442,#430,#214,.T.);
#529=EDGE_CURVE('',#439,#442,#63,.T.);
#530=EDGE_CURVE('',#443,#442,#215,.T.);
#531=EDGE_CURVE('',#438,#443,#64,.T.);
#532=EDGE_CURVE('',#435,#443,#216,.T.);
#533=EDGE_CURVE('',#442,#444,#217,.T.);
#534=EDGE_CURVE('',#445,#444,#218,.T.);
#535=EDGE_CURVE('',#446,#445,#219,.T.);
#536=EDGE_CURVE('',#447,#446,#220,.T.);
#537=EDGE_CURVE('',#447,#429,#221,.T.);
#538=EDGE_CURVE('',#428,#430,#222,.T.);
#539=EDGE_CURVE('',#443,#448,#223,.T.);
#540=EDGE_CURVE('',#444,#448,#224,.T.);
#541=EDGE_CURVE('',#435,#426,#225,.T.);
#542=EDGE_CURVE('',#427,#449,#226,.T.);
#543=EDGE_CURVE('',#450,#449,#227,.T.);
#544=EDGE_CURVE('',#451,#450,#228,.T.);
#545=EDGE_CURVE('',#448,#451,#229,.T.);
#546=EDGE_CURVE('',#452,#453,#380,.F.);
#547=EDGE_CURVE('',#454,#452,#381,.F.);
#548=EDGE_CURVE('',#453,#454,#382,.F.);
#549=EDGE_CURVE('',#455,#456,#383,.F.);
#550=EDGE_CURVE('',#457,#455,#384,.F.);
#551=EDGE_CURVE('',#456,#457,#385,.F.);
#552=EDGE_CURVE('',#452,#457,#230,.T.);
#553=EDGE_CURVE('',#455,#454,#231,.T.);
#554=EDGE_CURVE('',#458,#459,#386,.F.);
#555=EDGE_CURVE('',#460,#458,#387,.F.);
#556=EDGE_CURVE('',#459,#460,#388,.F.);
#557=EDGE_CURVE('',#440,#461,#389,.F.);
#558=EDGE_CURVE('',#462,#440,#390,.F.);
#559=EDGE_CURVE('',#461,#462,#391,.F.);
#560=EDGE_CURVE('',#463,#464,#392,.F.);
#561=EDGE_CURVE('',#465,#463,#393,.F.);
#562=EDGE_CURVE('',#464,#465,#394,.F.);
#563=EDGE_CURVE('',#463,#460,#232,.T.);
#564=EDGE_CURVE('',#458,#465,#233,.T.);
#565=EDGE_CURVE('',#456,#464,#234,.T.);
#566=EDGE_CURVE('',#465,#455,#235,.T.);
#567=EDGE_CURVE('',#466,#432,#395,.F.);
#568=EDGE_CURVE('',#433,#466,#396,.F.);
#569=EDGE_CURVE('',#466,#462,#236,.T.);
#570=EDGE_CURVE('',#467,#468,#397,.F.);
#571=EDGE_CURVE('',#441,#467,#398,.F.);
#572=EDGE_CURVE('',#468,#441,#399,.F.);
#573=EDGE_CURVE('',#469,#436,#400,.F.);
#574=EDGE_CURVE('',#437,#469,#401,.F.);
#575=EDGE_CURVE('',#467,#469,#237,.T.);
#576=EDGE_CURVE('',#464,#437,#238,.T.);
#577=EDGE_CURVE('',#469,#463,#239,.T.);
#578=EDGE_CURVE('',#461,#468,#240,.T.);
#579=EDGE_CURVE('',#468,#459,#241,.T.);
#580=EDGE_CURVE('',#460,#467,#242,.T.);
#581=EDGE_CURVE('',#432,#456,#243,.T.);
#582=EDGE_CURVE('',#457,#466,#244,.T.);
#583=EDGE_CURVE('',#453,#461,#245,.T.);
#584=EDGE_CURVE('',#462,#452,#246,.T.);
#585=EDGE_CURVE('',#459,#453,#247,.T.);
#586=EDGE_CURVE('',#454,#458,#248,.T.);
#587=EDGE_CURVE('',#470,#470,#402,.T.);
#588=EDGE_CURVE('',#471,#471,#403,.T.);
#589=EDGE_CURVE('',#472,#472,#404,.T.);
#590=EDGE_CURVE('',#473,#473,#405,.T.);
#591=EDGE_CURVE('',#474,#475,#249,.T.);
#592=EDGE_CURVE('',#475,#476,#250,.T.);
#593=EDGE_CURVE('',#476,#477,#251,.T.);
#594=EDGE_CURVE('',#477,#474,#252,.T.);
#595=EDGE_CURVE('',#478,#475,#253,.T.);
#596=EDGE_CURVE('',#479,#478,#254,.T.);
#597=EDGE_CURVE('',#479,#476,#255,.T.);
#598=EDGE_CURVE('',#480,#474,#256,.T.);
#599=EDGE_CURVE('',#478,#480,#257,.T.);
#600=EDGE_CURVE('',#470,#481,#258,.T.);
#601=EDGE_CURVE('',#481,#481,#406,.T.);
#602=EDGE_CURVE('',#482,#482,#407,.T.);
#603=EDGE_CURVE('',#471,#483,#259,.T.);
#604=EDGE_CURVE('',#483,#483,#408,.T.);
#605=EDGE_CURVE('',#484,#484,#409,.T.);
#606=EDGE_CURVE('',#472,#485,#260,.T.);
#607=EDGE_CURVE('',#485,#485,#410,.T.);
#608=EDGE_CURVE('',#486,#486,#411,.T.);
#609=EDGE_CURVE('',#473,#487,#261,.T.);
#610=EDGE_CURVE('',#487,#487,#412,.T.);
#611=EDGE_CURVE('',#488,#488,#413,.T.);
#612=EDGE_CURVE('',#447,#449,#262,.F.);
#613=EDGE_CURVE('',#445,#479,#263,.T.);
#614=EDGE_CURVE('',#489,#451,#264,.T.);
#615=EDGE_CURVE('',#489,#477,#265,.F.);
#616=EDGE_CURVE('',#449,#490,#266,.F.);
#617=EDGE_CURVE('',#490,#491,#267,.T.);
#618=EDGE_CURVE('',#450,#491,#268,.T.);
#619=EDGE_CURVE('',#492,#492,#414,.T.);
#620=EDGE_CURVE('',#492,#484,#269,.T.);
#621=EDGE_CURVE('',#493,#493,#415,.T.);
#622=EDGE_CURVE('',#493,#488,#270,.T.);
#623=EDGE_CURVE('',#494,#494,#416,.T.);
#624=EDGE_CURVE('',#494,#482,#271,.T.);
#625=EDGE_CURVE('',#495,#495,#417,.T.);
#626=EDGE_CURVE('',#495,#486,#272,.T.);
#627=EDGE_CURVE('',#496,#497,#273,.T.);
#628=EDGE_CURVE('',#498,#496,#418,.T.);
#629=EDGE_CURVE('',#499,#498,#274,.T.);
#630=EDGE_CURVE('',#497,#499,#419,.T.);
#631=EDGE_CURVE('',#499,#500,#275,.T.);
#632=EDGE_CURVE('',#500,#501,#420,.T.);
#633=EDGE_CURVE('',#501,#502,#276,.T.);
#634=EDGE_CURVE('',#502,#490,#421,.T.);
#635=EDGE_CURVE('',#503,#447,#277,.F.);
#636=EDGE_CURVE('',#503,#504,#422,.T.);
#637=EDGE_CURVE('',#504,#497,#278,.T.);
#638=EDGE_CURVE('',#498,#505,#279,.T.);
#639=EDGE_CURVE('',#505,#500,#280,.T.);
#640=EDGE_CURVE('',#506,#503,#281,.T.);
#641=EDGE_CURVE('',#507,#506,#423,.T.);
#642=EDGE_CURVE('',#504,#507,#282,.T.);
#643=EDGE_CURVE('',#507,#496,#283,.T.);
#644=EDGE_CURVE('',#508,#502,#284,.T.);
#645=EDGE_CURVE('',#491,#508,#424,.T.);
#646=EDGE_CURVE('',#506,#446,#285,.T.);
#647=EDGE_CURVE('',#509,#505,#425,.T.);
#648=EDGE_CURVE('',#501,#509,#286,.T.);
#649=EDGE_CURVE('',#509,#508,#287,.T.);
#650=EDGE_CURVE('',#480,#489,#288,.T.);
#651=ORIENTED_EDGE('',*,*,#510,.F.);
#652=ORIENTED_EDGE('',*,*,#511,.T.);
#653=ORIENTED_EDGE('',*,*,#512,.T.);
#654=ORIENTED_EDGE('',*,*,#513,.T.);
#655=ORIENTED_EDGE('',*,*,#514,.F.);
#656=ORIENTED_EDGE('',*,*,#515,.T.);
#657=ORIENTED_EDGE('',*,*,#516,.T.);
#658=ORIENTED_EDGE('',*,*,#517,.T.);
#659=ORIENTED_EDGE('',*,*,#518,.F.);
#660=ORIENTED_EDGE('',*,*,#519,.T.);
#661=ORIENTED_EDGE('',*,*,#520,.T.);
#662=ORIENTED_EDGE('',*,*,#521,.T.);
#663=ORIENTED_EDGE('',*,*,#522,.T.);
#664=ORIENTED_EDGE('',*,*,#523,.F.);
#665=ORIENTED_EDGE('',*,*,#524,.T.);
#666=ORIENTED_EDGE('',*,*,#517,.F.);
#667=ORIENTED_EDGE('',*,*,#525,.F.);
#668=ORIENTED_EDGE('',*,*,#526,.F.);
#669=ORIENTED_EDGE('',*,*,#527,.F.);
#670=ORIENTED_EDGE('',*,*,#519,.F.);
#671=ORIENTED_EDGE('',*,*,#528,.T.);
#672=ORIENTED_EDGE('',*,*,#514,.T.);
#673=ORIENTED_EDGE('',*,*,#524,.F.);
#674=ORIENTED_EDGE('',*,*,#529,.T.);
#675=ORIENTED_EDGE('',*,*,#530,.T.);
#676=ORIENTED_EDGE('',*,*,#529,.F.);
#677=ORIENTED_EDGE('',*,*,#523,.T.);
#678=ORIENTED_EDGE('',*,*,#531,.T.);
#679=ORIENTED_EDGE('',*,*,#522,.F.);
#680=ORIENTED_EDGE('',*,*,#518,.T.);
#681=ORIENTED_EDGE('',*,*,#532,.T.);
#682=ORIENTED_EDGE('',*,*,#531,.F.);
#683=ORIENTED_EDGE('',*,*,#528,.F.);
#684=ORIENTED_EDGE('',*,*,#533,.T.);
#685=ORIENTED_EDGE('',*,*,#534,.F.);
#686=ORIENTED_EDGE('',*,*,#535,.F.);
#687=ORIENTED_EDGE('',*,*,#536,.F.);
#688=ORIENTED_EDGE('',*,*,#537,.T.);
#689=ORIENTED_EDGE('',*,*,#512,.F.);
#690=ORIENTED_EDGE('',*,*,#538,.T.);
#691=ORIENTED_EDGE('',*,*,#530,.F.);
#692=ORIENTED_EDGE('',*,*,#539,.T.);
#693=ORIENTED_EDGE('',*,*,#540,.F.);
#694=ORIENTED_EDGE('',*,*,#533,.F.);
#695=ORIENTED_EDGE('',*,*,#532,.F.);
#696=ORIENTED_EDGE('',*,*,#541,.T.);
#697=ORIENTED_EDGE('',*,*,#510,.T.);
#698=ORIENTED_EDGE('',*,*,#542,.T.);
#699=ORIENTED_EDGE('',*,*,#543,.F.);
#700=ORIENTED_EDGE('',*,*,#544,.F.);
#701=ORIENTED_EDGE('',*,*,#545,.F.);
#702=ORIENTED_EDGE('',*,*,#539,.F.);
#703=ORIENTED_EDGE('',*,*,#546,.F.);
#704=ORIENTED_EDGE('',*,*,#547,.F.);
#705=ORIENTED_EDGE('',*,*,#548,.F.);
#706=ORIENTED_EDGE('',*,*,#549,.F.);
#707=ORIENTED_EDGE('',*,*,#550,.F.);
#708=ORIENTED_EDGE('',*,*,#551,.F.);
#709=ORIENTED_EDGE('',*,*,#547,.T.);
#710=ORIENTED_EDGE('',*,*,#552,.T.);
#711=ORIENTED_EDGE('',*,*,#550,.T.);
#712=ORIENTED_EDGE('',*,*,#553,.T.);
#713=ORIENTED_EDGE('',*,*,#554,.F.);
#714=ORIENTED_EDGE('',*,*,#555,.F.);
#715=ORIENTED_EDGE('',*,*,#556,.F.);
#716=ORIENTED_EDGE('',*,*,#557,.F.);
#717=ORIENTED_EDGE('',*,*,#558,.F.);
#718=ORIENTED_EDGE('',*,*,#559,.F.);
#719=ORIENTED_EDGE('',*,*,#560,.F.);
#720=ORIENTED_EDGE('',*,*,#561,.F.);
#721=ORIENTED_EDGE('',*,*,#562,.F.);
#722=ORIENTED_EDGE('',*,*,#561,.T.);
#723=ORIENTED_EDGE('',*,*,#563,.T.);
#724=ORIENTED_EDGE('',*,*,#555,.T.);
#725=ORIENTED_EDGE('',*,*,#564,.T.);
#726=ORIENTED_EDGE('',*,*,#549,.T.);
#727=ORIENTED_EDGE('',*,*,#565,.T.);
#728=ORIENTED_EDGE('',*,*,#562,.T.);
#729=ORIENTED_EDGE('',*,*,#566,.T.);
#730=ORIENTED_EDGE('',*,*,#567,.F.);
#731=ORIENTED_EDGE('',*,*,#568,.F.);
#732=ORIENTED_EDGE('',*,*,#516,.F.);
#733=ORIENTED_EDGE('',*,*,#558,.T.);
#734=ORIENTED_EDGE('',*,*,#525,.T.);
#735=ORIENTED_EDGE('',*,*,#568,.T.);
#736=ORIENTED_EDGE('',*,*,#569,.T.);
#737=ORIENTED_EDGE('',*,*,#570,.F.);
#738=ORIENTED_EDGE('',*,*,#571,.F.);
#739=ORIENTED_EDGE('',*,*,#572,.F.);
#740=ORIENTED_EDGE('',*,*,#520,.F.);
#741=ORIENTED_EDGE('',*,*,#573,.F.);
#742=ORIENTED_EDGE('',*,*,#574,.F.);
#743=ORIENTED_EDGE('',*,*,#571,.T.);
#744=ORIENTED_EDGE('',*,*,#575,.T.);
#745=ORIENTED_EDGE('',*,*,#573,.T.);
#746=ORIENTED_EDGE('',*,*,#527,.T.);
#747=ORIENTED_EDGE('',*,*,#560,.T.);
#748=ORIENTED_EDGE('',*,*,#576,.T.);
#749=ORIENTED_EDGE('',*,*,#574,.T.);
#750=ORIENTED_EDGE('',*,*,#577,.T.);
#751=ORIENTED_EDGE('',*,*,#557,.T.);
#752=ORIENTED_EDGE('',*,*,#578,.T.);
#753=ORIENTED_EDGE('',*,*,#572,.T.);
#754=ORIENTED_EDGE('',*,*,#526,.T.);
#755=ORIENTED_EDGE('',*,*,#570,.T.);
#756=ORIENTED_EDGE('',*,*,#579,.T.);
#757=ORIENTED_EDGE('',*,*,#556,.T.);
#758=ORIENTED_EDGE('',*,*,#580,.T.);
#759=ORIENTED_EDGE('',*,*,#567,.T.);
#760=ORIENTED_EDGE('',*,*,#581,.T.);
#761=ORIENTED_EDGE('',*,*,#551,.T.);
#762=ORIENTED_EDGE('',*,*,#582,.T.);
#763=ORIENTED_EDGE('',*,*,#546,.T.);
#764=ORIENTED_EDGE('',*,*,#583,.T.);
#765=ORIENTED_EDGE('',*,*,#559,.T.);
#766=ORIENTED_EDGE('',*,*,#584,.T.);
#767=ORIENTED_EDGE('',*,*,#554,.T.);
#768=ORIENTED_EDGE('',*,*,#585,.T.);
#769=ORIENTED_EDGE('',*,*,#548,.T.);
#770=ORIENTED_EDGE('',*,*,#586,.T.);
#771=ORIENTED_EDGE('',*,*,#564,.F.);
#772=ORIENTED_EDGE('',*,*,#586,.F.);
#773=ORIENTED_EDGE('',*,*,#553,.F.);
#774=ORIENTED_EDGE('',*,*,#566,.F.);
#775=ORIENTED_EDGE('',*,*,#541,.F.);
#776=ORIENTED_EDGE('',*,*,#521,.F.);
#777=ORIENTED_EDGE('',*,*,#576,.F.);
#778=ORIENTED_EDGE('',*,*,#565,.F.);
#779=ORIENTED_EDGE('',*,*,#581,.F.);
#780=ORIENTED_EDGE('',*,*,#515,.F.);
#781=ORIENTED_EDGE('',*,*,#538,.F.);
#782=ORIENTED_EDGE('',*,*,#511,.F.);
#783=ORIENTED_EDGE('',*,*,#587,.T.);
#784=ORIENTED_EDGE('',*,*,#588,.T.);
#785=ORIENTED_EDGE('',*,*,#589,.T.);
#786=ORIENTED_EDGE('',*,*,#590,.T.);
#787=ORIENTED_EDGE('',*,*,#569,.F.);
#788=ORIENTED_EDGE('',*,*,#582,.F.);
#789=ORIENTED_EDGE('',*,*,#552,.F.);
#790=ORIENTED_EDGE('',*,*,#584,.F.);
#791=ORIENTED_EDGE('',*,*,#575,.F.);
#792=ORIENTED_EDGE('',*,*,#580,.F.);
#793=ORIENTED_EDGE('',*,*,#563,.F.);
#794=ORIENTED_EDGE('',*,*,#577,.F.);
#795=ORIENTED_EDGE('',*,*,#578,.F.);
#796=ORIENTED_EDGE('',*,*,#583,.F.);
#797=ORIENTED_EDGE('',*,*,#585,.F.);
#798=ORIENTED_EDGE('',*,*,#579,.F.);
#799=ORIENTED_EDGE('',*,*,#591,.T.);
#800=ORIENTED_EDGE('',*,*,#592,.T.);
#801=ORIENTED_EDGE('',*,*,#593,.T.);
#802=ORIENTED_EDGE('',*,*,#594,.T.);
#803=ORIENTED_EDGE('',*,*,#595,.F.);
#804=ORIENTED_EDGE('',*,*,#596,.F.);
#805=ORIENTED_EDGE('',*,*,#597,.T.);
#806=ORIENTED_EDGE('',*,*,#592,.F.);
#807=ORIENTED_EDGE('',*,*,#598,.F.);
#808=ORIENTED_EDGE('',*,*,#599,.F.);
#809=ORIENTED_EDGE('',*,*,#595,.T.);
#810=ORIENTED_EDGE('',*,*,#591,.F.);
#811=ORIENTED_EDGE('',*,*,#587,.F.);
#812=ORIENTED_EDGE('',*,*,#600,.T.);
#813=ORIENTED_EDGE('',*,*,#601,.T.);
#814=ORIENTED_EDGE('',*,*,#600,.F.);
#815=ORIENTED_EDGE('',*,*,#601,.F.);
#816=ORIENTED_EDGE('',*,*,#602,.F.);
#817=ORIENTED_EDGE('',*,*,#588,.F.);
#818=ORIENTED_EDGE('',*,*,#603,.T.);
#819=ORIENTED_EDGE('',*,*,#604,.T.);
#820=ORIENTED_EDGE('',*,*,#603,.F.);
#821=ORIENTED_EDGE('',*,*,#604,.F.);
#822=ORIENTED_EDGE('',*,*,#605,.F.);
#823=ORIENTED_EDGE('',*,*,#589,.F.);
#824=ORIENTED_EDGE('',*,*,#606,.T.);
#825=ORIENTED_EDGE('',*,*,#607,.T.);
#826=ORIENTED_EDGE('',*,*,#606,.F.);
#827=ORIENTED_EDGE('',*,*,#607,.F.);
#828=ORIENTED_EDGE('',*,*,#608,.F.);
#829=ORIENTED_EDGE('',*,*,#590,.F.);
#830=ORIENTED_EDGE('',*,*,#609,.T.);
#831=ORIENTED_EDGE('',*,*,#610,.T.);
#832=ORIENTED_EDGE('',*,*,#609,.F.);
#833=ORIENTED_EDGE('',*,*,#610,.F.);
#834=ORIENTED_EDGE('',*,*,#611,.F.);
#835=ORIENTED_EDGE('',*,*,#612,.T.);
#836=ORIENTED_EDGE('',*,*,#542,.F.);
#837=ORIENTED_EDGE('',*,*,#513,.F.);
#838=ORIENTED_EDGE('',*,*,#537,.F.);
#839=ORIENTED_EDGE('',*,*,#597,.F.);
#840=ORIENTED_EDGE('',*,*,#613,.F.);
#841=ORIENTED_EDGE('',*,*,#534,.T.);
#842=ORIENTED_EDGE('',*,*,#540,.T.);
#843=ORIENTED_EDGE('',*,*,#545,.T.);
#844=ORIENTED_EDGE('',*,*,#614,.F.);
#845=ORIENTED_EDGE('',*,*,#615,.T.);
#846=ORIENTED_EDGE('',*,*,#593,.F.);
#847=ORIENTED_EDGE('',*,*,#543,.T.);
#848=ORIENTED_EDGE('',*,*,#616,.T.);
#849=ORIENTED_EDGE('',*,*,#617,.T.);
#850=ORIENTED_EDGE('',*,*,#618,.F.);
#851=ORIENTED_EDGE('',*,*,#619,.F.);
#852=ORIENTED_EDGE('',*,*,#620,.T.);
#853=ORIENTED_EDGE('',*,*,#605,.T.);
#854=ORIENTED_EDGE('',*,*,#620,.F.);
#855=ORIENTED_EDGE('',*,*,#621,.F.);
#856=ORIENTED_EDGE('',*,*,#622,.T.);
#857=ORIENTED_EDGE('',*,*,#611,.T.);
#858=ORIENTED_EDGE('',*,*,#622,.F.);
#859=ORIENTED_EDGE('',*,*,#623,.F.);
#860=ORIENTED_EDGE('',*,*,#624,.T.);
#861=ORIENTED_EDGE('',*,*,#602,.T.);
#862=ORIENTED_EDGE('',*,*,#624,.F.);
#863=ORIENTED_EDGE('',*,*,#625,.F.);
#864=ORIENTED_EDGE('',*,*,#626,.T.);
#865=ORIENTED_EDGE('',*,*,#608,.T.);
#866=ORIENTED_EDGE('',*,*,#626,.F.);
#867=ORIENTED_EDGE('',*,*,#627,.F.);
#868=ORIENTED_EDGE('',*,*,#628,.F.);
#869=ORIENTED_EDGE('',*,*,#629,.F.);
#870=ORIENTED_EDGE('',*,*,#630,.F.);
#871=ORIENTED_EDGE('',*,*,#630,.T.);
#872=ORIENTED_EDGE('',*,*,#631,.T.);
#873=ORIENTED_EDGE('',*,*,#632,.T.);
#874=ORIENTED_EDGE('',*,*,#633,.T.);
#875=ORIENTED_EDGE('',*,*,#634,.T.);
#876=ORIENTED_EDGE('',*,*,#616,.F.);
#877=ORIENTED_EDGE('',*,*,#612,.F.);
#878=ORIENTED_EDGE('',*,*,#635,.F.);
#879=ORIENTED_EDGE('',*,*,#636,.T.);
#880=ORIENTED_EDGE('',*,*,#637,.T.);
#881=ORIENTED_EDGE('',*,*,#629,.T.);
#882=ORIENTED_EDGE('',*,*,#638,.T.);
#883=ORIENTED_EDGE('',*,*,#639,.T.);
#884=ORIENTED_EDGE('',*,*,#631,.F.);
#885=ORIENTED_EDGE('',*,*,#640,.F.);
#886=ORIENTED_EDGE('',*,*,#641,.F.);
#887=ORIENTED_EDGE('',*,*,#642,.F.);
#888=ORIENTED_EDGE('',*,*,#636,.F.);
#889=ORIENTED_EDGE('',*,*,#627,.T.);
#890=ORIENTED_EDGE('',*,*,#637,.F.);
#891=ORIENTED_EDGE('',*,*,#642,.T.);
#892=ORIENTED_EDGE('',*,*,#643,.T.);
#893=ORIENTED_EDGE('',*,*,#644,.F.);
#894=ORIENTED_EDGE('',*,*,#645,.F.);
#895=ORIENTED_EDGE('',*,*,#617,.F.);
#896=ORIENTED_EDGE('',*,*,#634,.F.);
#897=ORIENTED_EDGE('',*,*,#536,.T.);
#898=ORIENTED_EDGE('',*,*,#646,.F.);
#899=ORIENTED_EDGE('',*,*,#640,.T.);
#900=ORIENTED_EDGE('',*,*,#635,.T.);
#901=ORIENTED_EDGE('',*,*,#639,.F.);
#902=ORIENTED_EDGE('',*,*,#647,.F.);
#903=ORIENTED_EDGE('',*,*,#648,.F.);
#904=ORIENTED_EDGE('',*,*,#632,.F.);
#905=ORIENTED_EDGE('',*,*,#644,.T.);
#906=ORIENTED_EDGE('',*,*,#633,.F.);
#907=ORIENTED_EDGE('',*,*,#648,.T.);
#908=ORIENTED_EDGE('',*,*,#649,.T.);
#909=ORIENTED_EDGE('',*,*,#615,.F.);
#910=ORIENTED_EDGE('',*,*,#650,.F.);
#911=ORIENTED_EDGE('',*,*,#598,.T.);
#912=ORIENTED_EDGE('',*,*,#594,.F.);
#913=ORIENTED_EDGE('',*,*,#535,.T.);
#914=ORIENTED_EDGE('',*,*,#613,.T.);
#915=ORIENTED_EDGE('',*,*,#596,.T.);
#916=ORIENTED_EDGE('',*,*,#599,.T.);
#917=ORIENTED_EDGE('',*,*,#650,.T.);
#918=ORIENTED_EDGE('',*,*,#614,.T.);
#919=ORIENTED_EDGE('',*,*,#544,.T.);
#920=ORIENTED_EDGE('',*,*,#618,.T.);
#921=ORIENTED_EDGE('',*,*,#645,.T.);
#922=ORIENTED_EDGE('',*,*,#649,.F.);
#923=ORIENTED_EDGE('',*,*,#647,.T.);
#924=ORIENTED_EDGE('',*,*,#638,.F.);
#925=ORIENTED_EDGE('',*,*,#628,.T.);
#926=ORIENTED_EDGE('',*,*,#643,.F.);
#927=ORIENTED_EDGE('',*,*,#641,.T.);
#928=ORIENTED_EDGE('',*,*,#646,.T.);
#929=ORIENTED_EDGE('',*,*,#625,.T.);
#930=ORIENTED_EDGE('',*,*,#623,.T.);
#931=ORIENTED_EDGE('',*,*,#621,.T.);
#932=ORIENTED_EDGE('',*,*,#619,.T.);
#933=CYLINDRICAL_SURFACE('',#1038,2.00000000000001);
#934=CYLINDRICAL_SURFACE('',#1041,2.);
#935=CYLINDRICAL_SURFACE('',#1044,2.);
#936=CYLINDRICAL_SURFACE('',#1048,2.);
#937=CYLINDRICAL_SURFACE('',#1050,2.);
#938=CYLINDRICAL_SURFACE('',#1052,2.);
#939=CYLINDRICAL_SURFACE('',#1064,2.);
#940=CYLINDRICAL_SURFACE('',#1077,2.);
#941=CYLINDRICAL_SURFACE('',#1078,2.);
#942=CYLINDRICAL_SURFACE('',#1082,2.);
#943=CYLINDRICAL_SURFACE('',#1090,2.);
#944=CYLINDRICAL_SURFACE('',#1091,2.);
#945=CYLINDRICAL_SURFACE('',#1092,2.);
#946=CYLINDRICAL_SURFACE('',#1093,2.);
#947=CYLINDRICAL_SURFACE('',#1094,2.);
#948=CYLINDRICAL_SURFACE('',#1095,2.);
#949=CYLINDRICAL_SURFACE('',#1096,2.);
#950=CYLINDRICAL_SURFACE('',#1108,4.8);
#951=CYLINDRICAL_SURFACE('',#1112,4.8);
#952=CYLINDRICAL_SURFACE('',#1116,4.8);
#953=CYLINDRICAL_SURFACE('',#1120,4.8);
#954=CYLINDRICAL_SURFACE('',#1127,1.6);
#955=CYLINDRICAL_SURFACE('',#1129,1.6);
#956=CYLINDRICAL_SURFACE('',#1131,1.6);
#957=CYLINDRICAL_SURFACE('',#1133,1.6);
#958=CYLINDRICAL_SURFACE('',#1135,5.49999999999997);
#959=CYLINDRICAL_SURFACE('',#1143,5.);
#960=CYLINDRICAL_SURFACE('',#1146,5.);
#961=CYLINDRICAL_SURFACE('',#1149,5.49999999999997);
#962=ADVANCED_FACE('',(#65),#933,.T.);
#963=ADVANCED_FACE('',(#66),#934,.T.);
#964=ADVANCED_FACE('',(#67),#935,.T.);
#965=ADVANCED_FACE('',(#68),#36,.T.);
#966=ADVANCED_FACE('',(#69),#936,.T.);
#967=ADVANCED_FACE('',(#70),#937,.T.);
#968=ADVANCED_FACE('',(#71),#938,.T.);
#969=ADVANCED_FACE('',(#72),#37,.F.);
#970=ADVANCED_FACE('',(#73),#38,.F.);
#971=ADVANCED_FACE('',(#74),#39,.F.);
#972=ADVANCED_FACE('',(#75),#28,.T.);
#973=ADVANCED_FACE('',(#76),#29,.T.);
#974=ADVANCED_FACE('',(#77),#939,.T.);
#975=ADVANCED_FACE('',(#78),#30,.T.);
#976=ADVANCED_FACE('',(#79),#31,.T.);
#977=ADVANCED_FACE('',(#80),#32,.T.);
#978=ADVANCED_FACE('',(#81),#940,.T.);
#979=ADVANCED_FACE('',(#82),#941,.T.);
#980=ADVANCED_FACE('',(#83),#33,.T.);
#981=ADVANCED_FACE('',(#84),#942,.T.);
#982=ADVANCED_FACE('',(#85),#34,.T.);
#983=ADVANCED_FACE('',(#86),#35,.T.);
#984=ADVANCED_FACE('',(#87),#943,.T.);
#985=ADVANCED_FACE('',(#88),#944,.T.);
#986=ADVANCED_FACE('',(#89),#945,.T.);
#987=ADVANCED_FACE('',(#90),#946,.T.);
#988=ADVANCED_FACE('',(#91),#947,.T.);
#989=ADVANCED_FACE('',(#92),#948,.T.);
#990=ADVANCED_FACE('',(#93),#949,.T.);
#991=ADVANCED_FACE('',(#94),#40,.T.);
#992=ADVANCED_FACE('',(#95,#15,#16,#17,#18),#41,.T.);
#993=ADVANCED_FACE('',(#96),#42,.T.);
#994=ADVANCED_FACE('',(#97),#43,.T.);
#995=ADVANCED_FACE('',(#98,#19),#44,.T.);
#996=ADVANCED_FACE('',(#99),#45,.F.);
#997=ADVANCED_FACE('',(#100),#46,.F.);
#998=ADVANCED_FACE('',(#101),#950,.F.);
#999=ADVANCED_FACE('',(#102,#20),#47,.F.);
#1000=ADVANCED_FACE('',(#103),#951,.F.);
#1001=ADVANCED_FACE('',(#104,#21),#48,.F.);
#1002=ADVANCED_FACE('',(#105),#952,.F.);
#1003=ADVANCED_FACE('',(#106,#22),#49,.F.);
#1004=ADVANCED_FACE('',(#107),#953,.F.);
#1005=ADVANCED_FACE('',(#108,#23),#50,.F.);
#1006=ADVANCED_FACE('',(#109),#51,.F.);
#1007=ADVANCED_FACE('',(#110),#52,.F.);
#1008=ADVANCED_FACE('',(#111),#53,.F.);
#1009=ADVANCED_FACE('',(#112),#954,.F.);
#1010=ADVANCED_FACE('',(#113),#955,.F.);
#1011=ADVANCED_FACE('',(#114),#956,.F.);
#1012=ADVANCED_FACE('',(#115),#957,.F.);
#1013=ADVANCED_FACE('',(#116),#958,.T.);
#1014=ADVANCED_FACE('',(#117),#54,.F.);
#1015=ADVANCED_FACE('',(#118),#55,.T.);
#1016=ADVANCED_FACE('',(#119),#959,.T.);
#1017=ADVANCED_FACE('',(#120),#56,.T.);
#1018=ADVANCED_FACE('',(#121),#960,.T.);
#1019=ADVANCED_FACE('',(#122),#57,.F.);
#1020=ADVANCED_FACE('',(#123),#961,.T.);
#1021=ADVANCED_FACE('',(#124),#58,.T.);
#1022=ADVANCED_FACE('',(#125),#59,.F.);
#1023=ADVANCED_FACE('',(#126,#24,#25,#26,#27),#60,.T.);
#1024=CLOSED_SHELL('',(#962,#963,#964,#965,#966,#967,#968,#969,#970,#971,
#972,#973,#974,#975,#976,#977,#978,#979,#980,#981,#982,#983,#984,#985,#986,
#987,#988,#989,#990,#991,#992,#993,#994,#995,#996,#997,#998,#999,#1000,
#1001,#1002,#1003,#1004,#1005,#1006,#1007,#1008,#1009,#1010,#1011,#1012,
#1013,#1014,#1015,#1016,#1017,#1018,#1019,#1020,#1021,#1022,#1023));
#1025=DERIVED_UNIT_ELEMENT(#1027,1.);
#1026=DERIVED_UNIT_ELEMENT(#1768,-3.);
#1027=(
MASS_UNIT()
NAMED_UNIT(*)
SI_UNIT(.KILO.,.GRAM.)
);
#1028=DERIVED_UNIT((#1025,#1026));
#1029=MEASURE_REPRESENTATION_ITEM('density measure',
POSITIVE_RATIO_MEASURE(7850.),#1028);
#1030=PROPERTY_DEFINITION_REPRESENTATION(#1035,#1032);
#1031=PROPERTY_DEFINITION_REPRESENTATION(#1036,#1033);
#1032=REPRESENTATION('material name',(#1034),#1765);
#1033=REPRESENTATION('density',(#1029),#1765);
#1034=DESCRIPTIVE_REPRESENTATION_ITEM('Acier','Acier');
#1035=PROPERTY_DEFINITION('material property','material name',#1775);
#1036=PROPERTY_DEFINITION('material property','density of part',#1775);
#1037=AXIS2_PLACEMENT_3D('',#1475,#1154,#1155);
#1038=AXIS2_PLACEMENT_3D('',#1476,#1156,#1157);
#1039=AXIS2_PLACEMENT_3D('',#1479,#1158,#1159);
#1040=AXIS2_PLACEMENT_3D('',#1483,#1161,#1162);
#1041=AXIS2_PLACEMENT_3D('',#1485,#1164,#1165);
#1042=AXIS2_PLACEMENT_3D('',#1488,#1166,#1167);
#1043=AXIS2_PLACEMENT_3D('',#1492,#1169,#1170);
#1044=AXIS2_PLACEMENT_3D('',#1494,#1172,#1173);
#1045=AXIS2_PLACEMENT_3D('',#1497,#1174,#1175);
#1046=AXIS2_PLACEMENT_3D('',#1501,#1177,#1178);
#1047=AXIS2_PLACEMENT_3D('',#1503,#1180,#1181);
#1048=AXIS2_PLACEMENT_3D('',#1514,#1188,#1189);
#1049=AXIS2_PLACEMENT_3D('',#1517,#1191,#1192);
#1050=AXIS2_PLACEMENT_3D('',#1518,#1193,#1194);
#1051=AXIS2_PLACEMENT_3D('',#1521,#1196,#1197);
#1052=AXIS2_PLACEMENT_3D('',#1522,#1198,#1199);
#1053=AXIS2_PLACEMENT_3D('',#1524,#1201,#1202);
#1054=AXIS2_PLACEMENT_3D('',#1535,#1209,#1210);
#1055=AXIS2_PLACEMENT_3D('',#1539,#1213,#1214);
#1056=AXIS2_PLACEMENT_3D('',#1548,#1220,#1221);
#1057=AXIS2_PLACEMENT_3D('',#1551,#1222,#1223);
#1058=AXIS2_PLACEMENT_3D('',#1553,#1224,#1225);
#1059=AXIS2_PLACEMENT_3D('',#1554,#1226,#1227);
#1060=AXIS2_PLACEMENT_3D('',#1555,#1228,#1229);
#1061=AXIS2_PLACEMENT_3D('',#1558,#1230,#1231);
#1062=AXIS2_PLACEMENT_3D('',#1560,#1232,#1233);
#1063=AXIS2_PLACEMENT_3D('',#1561,#1234,#1235);
#1064=AXIS2_PLACEMENT_3D('',#1562,#1236,#1237);
#1065=AXIS2_PLACEMENT_3D('',#1565,#1240,#1241);
#1066=AXIS2_PLACEMENT_3D('',#1568,#1242,#1243);
#1067=AXIS2_PLACEMENT_3D('',#1570,#1244,#1245);
#1068=AXIS2_PLACEMENT_3D('',#1571,#1246,#1247);
#1069=AXIS2_PLACEMENT_3D('',#1572,#1248,#1249);
#1070=AXIS2_PLACEMENT_3D('',#1574,#1250,#1251);
#1071=AXIS2_PLACEMENT_3D('',#1576,#1252,#1253);
#1072=AXIS2_PLACEMENT_3D('',#1577,#1254,#1255);
#1073=AXIS2_PLACEMENT_3D('',#1578,#1256,#1257);
#1074=AXIS2_PLACEMENT_3D('',#1581,#1258,#1259);
#1075=AXIS2_PLACEMENT_3D('',#1583,#1260,#1261);
#1076=AXIS2_PLACEMENT_3D('',#1584,#1262,#1263);
#1077=AXIS2_PLACEMENT_3D('',#1585,#1264,#1265);
#1078=AXIS2_PLACEMENT_3D('',#1588,#1268,#1269);
#1079=AXIS2_PLACEMENT_3D('',#1591,#1272,#1273);
#1080=AXIS2_PLACEMENT_3D('',#1593,#1274,#1275);
#1081=AXIS2_PLACEMENT_3D('',#1594,#1276,#1277);
#1082=AXIS2_PLACEMENT_3D('',#1595,#1278,#1279);
#1083=AXIS2_PLACEMENT_3D('',#1597,#1281,#1282);
#1084=AXIS2_PLACEMENT_3D('',#1600,#1283,#1284);
#1085=AXIS2_PLACEMENT_3D('',#1601,#1285,#1286);
#1086=AXIS2_PLACEMENT_3D('',#1602,#1287,#1288);
#1087=AXIS2_PLACEMENT_3D('',#1603,#1289,#1290);
#1088=AXIS2_PLACEMENT_3D('',#1605,#1291,#1292);
#1089=AXIS2_PLACEMENT_3D('',#1606,#1293,#1294);
#1090=AXIS2_PLACEMENT_3D('',#1607,#1295,#1296);
#1091=AXIS2_PLACEMENT_3D('',#1609,#1298,#1299);
#1092=AXIS2_PLACEMENT_3D('',#1612,#1302,#1303);
#1093=AXIS2_PLACEMENT_3D('',#1614,#1305,#1306);
#1094=AXIS2_PLACEMENT_3D('',#1617,#1309,#1310);
#1095=AXIS2_PLACEMENT_3D('',#1620,#1313,#1314);
#1096=AXIS2_PLACEMENT_3D('',#1623,#1317,#1318);
#1097=AXIS2_PLACEMENT_3D('',#1626,#1321,#1322);
#1098=AXIS2_PLACEMENT_3D('',#1627,#1323,#1324);
#1099=AXIS2_PLACEMENT_3D('',#1629,#1325,#1326);
#1100=AXIS2_PLACEMENT_3D('',#1631,#1327,#1328);
#1101=AXIS2_PLACEMENT_3D('',#1633,#1329,#1330);
#1102=AXIS2_PLACEMENT_3D('',#1635,#1331,#1332);
#1103=AXIS2_PLACEMENT_3D('',#1636,#1333,#1334);
#1104=AXIS2_PLACEMENT_3D('',#1637,#1335,#1336);
#1105=AXIS2_PLACEMENT_3D('',#1638,#1337,#1338);
#1106=AXIS2_PLACEMENT_3D('',#1647,#1343,#1344);
#1107=AXIS2_PLACEMENT_3D('',#1653,#1348,#1349);
#1108=AXIS2_PLACEMENT_3D('',#1657,#1352,#1353);
#1109=AXIS2_PLACEMENT_3D('',#1660,#1355,#1356);
#1110=AXIS2_PLACEMENT_3D('',#1661,#1357,#1358);
#1111=AXIS2_PLACEMENT_3D('',#1663,#1359,#1360);
#1112=AXIS2_PLACEMENT_3D('',#1664,#1361,#1362);
#1113=AXIS2_PLACEMENT_3D('',#1667,#1364,#1365);
#1114=AXIS2_PLACEMENT_3D('',#1668,#1366,#1367);
#1115=AXIS2_PLACEMENT_3D('',#1670,#1368,#1369);
#1116=AXIS2_PLACEMENT_3D('',#1671,#1370,#1371);
#1117=AXIS2_PLACEMENT_3D('',#1674,#1373,#1374);
#1118=AXIS2_PLACEMENT_3D('',#1675,#1375,#1376);
#1119=AXIS2_PLACEMENT_3D('',#1677,#1377,#1378);
#1120=AXIS2_PLACEMENT_3D('',#1678,#1379,#1380);
#1121=AXIS2_PLACEMENT_3D('',#1681,#1382,#1383);
#1122=AXIS2_PLACEMENT_3D('',#1682,#1384,#1385);
#1123=AXIS2_PLACEMENT_3D('',#1684,#1386,#1387);
#1124=AXIS2_PLACEMENT_3D('',#1685,#1388,#1389);
#1125=AXIS2_PLACEMENT_3D('',#1687,#1391,#1392);
#1126=AXIS2_PLACEMENT_3D('',#1692,#1396,#1397);
#1127=AXIS2_PLACEMENT_3D('',#1698,#1401,#1402);
#1128=AXIS2_PLACEMENT_3D('',#1700,#1403,#1404);
#1129=AXIS2_PLACEMENT_3D('',#1702,#1406,#1407);
#1130=AXIS2_PLACEMENT_3D('',#1704,#1408,#1409);
#1131=AXIS2_PLACEMENT_3D('',#1706,#1411,#1412);
#1132=AXIS2_PLACEMENT_3D('',#1708,#1413,#1414);
#1133=AXIS2_PLACEMENT_3D('',#1710,#1416,#1417);
#1134=AXIS2_PLACEMENT_3D('',#1712,#1418,#1419);
#1135=AXIS2_PLACEMENT_3D('',#1714,#1421,#1422);
#1136=AXIS2_PLACEMENT_3D('',#1719,#1424,#1425);
#1137=AXIS2_PLACEMENT_3D('',#1722,#1427,#1428);
#1138=AXIS2_PLACEMENT_3D('',#1723,#1429,#1430);
#1139=AXIS2_PLACEMENT_3D('',#1727,#1432,#1433);
#1140=AXIS2_PLACEMENT_3D('',#1730,#1435,#1436);
#1141=AXIS2_PLACEMENT_3D('',#1734,#1438,#1439);
#1142=AXIS2_PLACEMENT_3D('',#1736,#1441,#1442);
#1143=AXIS2_PLACEMENT_3D('',#1740,#1445,#1446);
#1144=AXIS2_PLACEMENT_3D('',#1744,#1448,#1449);
#1145=AXIS2_PLACEMENT_3D('',#1746,#1451,#1452);
#1146=AXIS2_PLACEMENT_3D('',#1748,#1454,#1455);
#1147=AXIS2_PLACEMENT_3D('',#1751,#1457,#1458);
#1148=AXIS2_PLACEMENT_3D('',#1752,#1459,#1460);
#1149=AXIS2_PLACEMENT_3D('',#1754,#1462,#1463);
#1150=AXIS2_PLACEMENT_3D('',#1756,#1464,#1465);
#1151=AXIS2_PLACEMENT_3D('',#1758,#1467,#1468);
#1152=AXIS2_PLACEMENT_3D('',#1760,#1470,#1471);
#1153=AXIS2_PLACEMENT_3D('',#1762,#1473,#1474);
#1154=DIRECTION('axis',(0.,0.,1.));
#1155=DIRECTION('refdir',(1.,0.,0.));
#1156=DIRECTION('center_axis',(-1.,0.,0.));
#1157=DIRECTION('ref_axis',(0.,0.655724912607397,0.754999893368219));
#1158=DIRECTION('center_axis',(1.,0.,0.));
#1159=DIRECTION('ref_axis',(0.,0.655724912607397,0.754999893368219));
#1160=DIRECTION('',(-1.,0.,0.));
#1161=DIRECTION('center_axis',(-1.,0.,0.));
#1162=DIRECTION('ref_axis',(0.,0.655724912607397,0.754999893368219));
#1163=DIRECTION('',(1.,0.,0.));
#1164=DIRECTION('center_axis',(1.,0.,0.));
#1165=DIRECTION('ref_axis',(0.,0.70710678118654,-0.707106781186555));
#1166=DIRECTION('center_axis',(0.707106781186542,0.,0.707106781186553));
#1167=DIRECTION('ref_axis',(0.707106781186553,-9.81307786677366E-17,-0.707106781186542));
#1168=DIRECTION('',(-1.,0.,0.));
#1169=DIRECTION('center_axis',(-1.,0.,0.));
#1170=DIRECTION('ref_axis',(0.,0.,-1.));
#1171=DIRECTION('',(1.,0.,0.));
#1172=DIRECTION('center_axis',(1.,0.,0.));
#1173=DIRECTION('ref_axis',(0.,0.70710678118654,-0.707106781186555));
#1174=DIRECTION('center_axis',(-0.707106781186542,0.,0.707106781186553));
#1175=DIRECTION('ref_axis',(-0.707106781186553,9.81307786677366E-17,-0.707106781186542));
#1176=DIRECTION('',(1.,0.,0.));
#1177=DIRECTION('center_axis',(1.,0.,-7.105427357601E-14));
#1178=DIRECTION('ref_axis',(0.,1.,0.));
#1179=DIRECTION('',(-1.,0.,0.));
#1180=DIRECTION('center_axis',(0.,1.,0.));
#1181=DIRECTION('ref_axis',(1.,0.,0.));
#1182=DIRECTION('',(0.,0.,1.));
#1183=DIRECTION('',(1.,0.,0.));
#1184=DIRECTION('',(0.,0.,-1.));
#1185=DIRECTION('',(0.,0.,-1.));
#1186=DIRECTION('',(-1.,0.,0.));
#1187=DIRECTION('',(0.,0.,1.));
#1188=DIRECTION('center_axis',(0.,0.,-1.));
#1189=DIRECTION('ref_axis',(0.707106781186522,0.707106781186573,0.));
#1190=DIRECTION('',(0.,0.,-1.));
#1191=DIRECTION('center_axis',(-0.707106781186543,0.,-0.707106781186553));
#1192=DIRECTION('ref_axis',(-0.707106781186552,0.,0.707106781186542));
#1193=DIRECTION('center_axis',(-1.,0.,0.));
#1194=DIRECTION('ref_axis',(0.,0.707106781186553,-0.707106781186543));
#1195=DIRECTION('',(-1.,0.,0.));
#1196=DIRECTION('center_axis',(-0.707106781186543,0.,0.707106781186552));
#1197=DIRECTION('ref_axis',(0.707106781186552,0.,0.707106781186543));
#1198=DIRECTION('center_axis',(0.,0.,1.));
#1199=DIRECTION('ref_axis',(-0.707106781186573,0.707106781186523,0.));
#1200=DIRECTION('',(0.,0.,1.));
#1201=DIRECTION('center_axis',(-1.,0.,0.));
#1202=DIRECTION('ref_axis',(0.,0.,-1.));
#1203=DIRECTION('',(0.,-1.,0.));
#1204=DIRECTION('',(0.,0.,1.));
#1205=DIRECTION('',(0.,1.,0.));
#1206=DIRECTION('',(0.,0.,1.));
#1207=DIRECTION('',(0.,0.,-1.));
#1208=DIRECTION('',(0.,1.,0.));
#1209=DIRECTION('center_axis',(0.,0.,1.));
#1210=DIRECTION('ref_axis',(-1.,0.,0.));
#1211=DIRECTION('',(0.,-1.,0.));
#1212=DIRECTION('',(1.,0.,0.));
#1213=DIRECTION('center_axis',(1.,0.,0.));
#1214=DIRECTION('ref_axis',(0.,0.,1.));
#1215=DIRECTION('',(0.,-1.,0.));
#1216=DIRECTION('',(0.,0.,1.));
#1217=DIRECTION('',(0.,0.,-1.));
#1218=DIRECTION('',(0.,-1.,0.));
#1219=DIRECTION('',(0.,0.,-1.));
#1220=DIRECTION('center_axis',(-0.816496580927765,0.408248290463825,-0.408248290463823));
#1221=DIRECTION('ref_axis',(-0.577350269189586,-0.577350269189643,0.577350269189648));
#1222=DIRECTION('center_axis',(0.,-1.,0.));
#1223=DIRECTION('ref_axis',(-1.,0.,0.));
#1224=DIRECTION('center_axis',(0.,0.,1.));
#1225=DIRECTION('ref_axis',(0.,-1.,0.));
#1226=DIRECTION('center_axis',(-1.,7.1054273576009E-14,0.));
#1227=DIRECTION('ref_axis',(0.,0.,1.));
#1228=DIRECTION('center_axis',(-0.816496580927765,0.408248290463826,0.408248290463823));
#1229=DIRECTION('ref_axis',(-0.577350269189572,-0.577350269189657,-0.577350269189649));
#1230=DIRECTION('center_axis',(-1.,0.,-7.105427357601E-14));
#1231=DIRECTION('ref_axis',(0.,-1.,0.));
#1232=DIRECTION('center_axis',(0.,0.,-1.));
#1233=DIRECTION('ref_axis',(-1.,0.,0.));
#1234=DIRECTION('center_axis',(0.,-1.,0.));
#1235=DIRECTION('ref_axis',(0.,0.,-1.));
#1236=DIRECTION('center_axis',(0.,0.,1.));
#1237=DIRECTION('ref_axis',(-0.707106781186522,-0.707106781186573,0.));
#1238=DIRECTION('',(0.,0.,-1.));
#1239=DIRECTION('',(0.,0.,1.));
#1240=DIRECTION('center_axis',(-0.816496580927765,-0.408248290463826,0.408248290463823));
#1241=DIRECTION('ref_axis',(0.577350269189572,-0.577350269189657,0.577350269189649));
#1242=DIRECTION('center_axis',(1.,0.,7.105427357601E-14));
#1243=DIRECTION('ref_axis',(0.,-1.,0.));
#1244=DIRECTION('center_axis',(0.,0.,1.));
#1245=DIRECTION('ref_axis',(1.,0.,0.));
#1246=DIRECTION('center_axis',(0.,-1.,0.));
#1247=DIRECTION('ref_axis',(0.,0.,1.));
#1248=DIRECTION('center_axis',(-0.816496580927716,-0.408248290463886,-0.40824829046386));
#1249=DIRECTION('ref_axis',(-0.577350269189634,0.577350269189634,0.577350269189609));
#1250=DIRECTION('center_axis',(-1.,0.,0.));
#1251=DIRECTION('ref_axis',(0.,1.,0.));
#1252=DIRECTION('center_axis',(0.,0.,1.));
#1253=DIRECTION('ref_axis',(-1.,0.,0.));
#1254=DIRECTION('center_axis',(-1.77635683940023E-14,1.,0.));
#1255=DIRECTION('ref_axis',(0.,0.,1.));
#1256=DIRECTION('center_axis',(-0.816496580927765,-0.408248290463825,-0.408248290463824));
#1257=DIRECTION('ref_axis',(0.577350269189586,-0.577350269189643,-0.577350269189648));
#1258=DIRECTION('center_axis',(0.,-1.,0.));
#1259=DIRECTION('ref_axis',(1.,0.,0.));
#1260=DIRECTION('center_axis',(0.,0.,-1.));
#1261=DIRECTION('ref_axis',(0.,-1.,0.));
#1262=DIRECTION('center_axis',(1.,7.1054273576009E-14,0.));
#1263=DIRECTION('ref_axis',(0.,0.,-1.));
#1264=DIRECTION('center_axis',(0.,0.,-1.));
#1265=DIRECTION('ref_axis',(0.707106781186522,-0.707106781186573,0.));
#1266=DIRECTION('',(0.,0.,1.));
#1267=DIRECTION('',(0.,0.,-1.));
#1268=DIRECTION('center_axis',(-1.,0.,0.));
#1269=DIRECTION('ref_axis',(0.,-0.707106781186553,-0.707106781186542));
#1270=DIRECTION('',(1.,0.,0.));
#1271=DIRECTION('',(-1.,0.,0.));
#1272=DIRECTION('center_axis',(-0.816496580927716,-0.408248290463886,0.40824829046386));
#1273=DIRECTION('ref_axis',(-0.577350269189634,0.577350269189634,-0.577350269189609));
#1274=DIRECTION('center_axis',(0.,1.,1.77635683940025E-14));
#1275=DIRECTION('ref_axis',(-1.,0.,0.));
#1276=DIRECTION('center_axis',(0.,0.,-1.));
#1277=DIRECTION('ref_axis',(0.,1.,0.));
#1278=DIRECTION('center_axis',(0.,0.,1.));
#1279=DIRECTION('ref_axis',(-0.707106781186573,0.707106781186523,0.));
#1280=DIRECTION('',(0.,0.,1.));
#1281=DIRECTION('center_axis',(0.408248290463856,-0.816496580927711,0.4082482904639));
#1282=DIRECTION('ref_axis',(0.577350269189589,0.577350269189645,0.577350269189644));
#1283=DIRECTION('center_axis',(0.,1.,0.));
#1284=DIRECTION('ref_axis',(1.,0.,0.));
#1285=DIRECTION('center_axis',(0.,0.,1.));
#1286=DIRECTION('ref_axis',(0.,1.,0.));
#1287=DIRECTION('center_axis',(1.,-7.10542735760103E-14,0.));
#1288=DIRECTION('ref_axis',(0.,0.,1.));
#1289=DIRECTION('center_axis',(0.408248290463831,-0.816496580927718,-0.408248290463911));
#1290=DIRECTION('ref_axis',(0.57735026918957,0.577350269189656,-0.577350269189651));
#1291=DIRECTION('center_axis',(0.,0.,-1.));
#1292=DIRECTION('ref_axis',(1.,0.,0.));
#1293=DIRECTION('center_axis',(0.,1.,0.));
#1294=DIRECTION('ref_axis',(0.,0.,-1.));
#1295=DIRECTION('center_axis',(0.,0.,1.));
#1296=DIRECTION('ref_axis',(0.707106781186535,0.70710678118656,0.));
#1297=DIRECTION('',(0.,0.,-1.));
#1298=DIRECTION('center_axis',(0.,-1.,0.));
#1299=DIRECTION('ref_axis',(0.707106781186578,0.,-0.707106781186517));
#1300=DIRECTION('',(0.,1.,0.));
#1301=DIRECTION('',(0.,-1.,0.));
#1302=DIRECTION('center_axis',(-1.,0.,0.));
#1303=DIRECTION('ref_axis',(0.,0.70710678118654,0.707106781186555));
#1304=DIRECTION('',(1.,0.,0.));
#1305=DIRECTION('center_axis',(0.,1.,0.));
#1306=DIRECTION('ref_axis',(0.707106781186578,0.,0.707106781186517));
#1307=DIRECTION('',(0.,-1.,0.));
#1308=DIRECTION('',(0.,1.,0.));
#1309=DIRECTION('center_axis',(0.,1.,0.));
#1310=DIRECTION('ref_axis',(-0.707106781186578,0.,-0.707106781186517));
#1311=DIRECTION('',(0.,-1.,0.));
#1312=DIRECTION('',(0.,1.,0.));
#1313=DIRECTION('center_axis',(0.,-1.,0.));
#1314=DIRECTION('ref_axis',(-0.707106781186578,0.,0.707106781186517));
#1315=DIRECTION('',(0.,1.,0.));
#1316=DIRECTION('',(0.,-1.,0.));
#1317=DIRECTION('center_axis',(1.,0.,0.));
#1318=DIRECTION('ref_axis',(0.,-0.707106781186553,0.707106781186543));
#1319=DIRECTION('',(-1.,0.,0.));
#1320=DIRECTION('',(1.,0.,0.));
#1321=DIRECTION('center_axis',(0.,-1.,0.));
#1322=DIRECTION('ref_axis',(-1.,0.,0.));
#1323=DIRECTION('center_axis',(0.,0.,-1.));
#1324=DIRECTION('ref_axis',(-1.,0.,0.));
#1325=DIRECTION('center_axis',(0.,0.,1.));
#1326=DIRECTION('ref_axis',(-1.,0.,0.));
#1327=DIRECTION('center_axis',(0.,0.,1.));
#1328=DIRECTION('ref_axis',(-1.,0.,0.));
#1329=DIRECTION('center_axis',(0.,0.,1.));
#1330=DIRECTION('ref_axis',(-1.,0.,0.));
#1331=DIRECTION('center_axis',(0.,0.,1.));
#1332=DIRECTION('ref_axis',(-1.,0.,0.));
#1333=DIRECTION('center_axis',(-1.,0.,0.));
#1334=DIRECTION('ref_axis',(0.,1.,0.));
#1335=DIRECTION('center_axis',(1.,0.,0.));
#1336=DIRECTION('ref_axis',(0.,-1.,0.));
#1337=DIRECTION('center_axis',(0.,0.,1.));
#1338=DIRECTION('ref_axis',(1.,0.,0.));
#1339=DIRECTION('',(-1.,0.,0.));
#1340=DIRECTION('',(0.,1.,0.));
#1341=DIRECTION('',(1.,0.,0.));
#1342=DIRECTION('',(0.,-1.,0.));
#1343=DIRECTION('center_axis',(-1.,0.,0.));
#1344=DIRECTION('ref_axis',(0.,-1.,0.));
#1345=DIRECTION('',(0.,0.,1.));
#1346=DIRECTION('',(0.,-1.,0.));
#1347=DIRECTION('',(0.,0.,1.));
#1348=DIRECTION('center_axis',(0.,-1.,0.));
#1349=DIRECTION('ref_axis',(1.,0.,0.));
#1350=DIRECTION('',(0.,0.,1.));
#1351=DIRECTION('',(1.,0.,0.));
#1352=DIRECTION('center_axis',(0.,0.,1.));
#1353=DIRECTION('ref_axis',(-1.,0.,0.));
#1354=DIRECTION('',(0.,0.,1.));
#1355=DIRECTION('center_axis',(0.,0.,1.));
#1356=DIRECTION('ref_axis',(-1.,0.,0.));
#1357=DIRECTION('center_axis',(0.,0.,1.));
#1358=DIRECTION('ref_axis',(-1.,0.,0.));
#1359=DIRECTION('center_axis',(0.,0.,-1.));
#1360=DIRECTION('ref_axis',(1.,0.,0.));
#1361=DIRECTION('center_axis',(0.,0.,1.));
#1362=DIRECTION('ref_axis',(-1.,0.,0.));
#1363=DIRECTION('',(0.,0.,1.));
#1364=DIRECTION('center_axis',(0.,0.,1.));
#1365=DIRECTION('ref_axis',(-1.,0.,0.));
#1366=DIRECTION('center_axis',(0.,0.,1.));
#1367=DIRECTION('ref_axis',(-1.,0.,0.));
#1368=DIRECTION('center_axis',(0.,0.,-1.));
#1369=DIRECTION('ref_axis',(1.,0.,0.));
#1370=DIRECTION('center_axis',(0.,0.,1.));
#1371=DIRECTION('ref_axis',(-1.,0.,0.));
#1372=DIRECTION('',(0.,0.,1.));
#1373=DIRECTION('center_axis',(0.,0.,1.));
#1374=DIRECTION('ref_axis',(-1.,0.,0.));
#1375=DIRECTION('center_axis',(0.,0.,1.));
#1376=DIRECTION('ref_axis',(-1.,0.,0.));
#1377=DIRECTION('center_axis',(0.,0.,-1.));
#1378=DIRECTION('ref_axis',(1.,0.,0.));
#1379=DIRECTION('center_axis',(0.,0.,1.));
#1380=DIRECTION('ref_axis',(-1.,0.,0.));
#1381=DIRECTION('',(0.,0.,1.));
#1382=DIRECTION('center_axis',(0.,0.,1.));
#1383=DIRECTION('ref_axis',(-1.,0.,0.));
#1384=DIRECTION('center_axis',(0.,0.,1.));
#1385=DIRECTION('ref_axis',(-1.,0.,0.));
#1386=DIRECTION('center_axis',(0.,0.,-1.));
#1387=DIRECTION('ref_axis',(1.,0.,0.));
#1388=DIRECTION('center_axis',(0.,-1.,0.));
#1389=DIRECTION('ref_axis',(0.,0.,-1.));
#1390=DIRECTION('',(-1.,0.,0.));
#1391=DIRECTION('center_axis',(0.,1.,0.));
#1392=DIRECTION('ref_axis',(-1.,0.,0.));
#1393=DIRECTION('',(-1.,0.,0.));
#1394=DIRECTION('',(-1.,0.,0.));
#1395=DIRECTION('',(0.,0.,-1.));
#1396=DIRECTION('center_axis',(0.,1.,0.));
#1397=DIRECTION('ref_axis',(1.,0.,0.));
#1398=DIRECTION('',(-1.,0.,0.));
#1399=DIRECTION('',(0.,0.,1.));
#1400=DIRECTION('',(1.,0.,0.));
#1401=DIRECTION('center_axis',(0.,0.,-1.));
#1402=DIRECTION('ref_axis',(1.,0.,0.));
#1403=DIRECTION('center_axis',(0.,0.,-1.));
#1404=DIRECTION('ref_axis',(1.,0.,0.));
#1405=DIRECTION('',(0.,0.,-1.));
#1406=DIRECTION('center_axis',(0.,0.,-1.));
#1407=DIRECTION('ref_axis',(1.,0.,0.));
#1408=DIRECTION('center_axis',(0.,0.,-1.));
#1409=DIRECTION('ref_axis',(1.,0.,0.));
#1410=DIRECTION('',(0.,0.,-1.));
#1411=DIRECTION('center_axis',(0.,0.,-1.));
#1412=DIRECTION('ref_axis',(1.,0.,0.));
#1413=DIRECTION('center_axis',(0.,0.,-1.));
#1414=DIRECTION('ref_axis',(1.,0.,0.));
#1415=DIRECTION('',(0.,0.,-1.));
#1416=DIRECTION('center_axis',(0.,0.,-1.));
#1417=DIRECTION('ref_axis',(1.,0.,0.));
#1418=DIRECTION('center_axis',(0.,0.,-1.));
#1419=DIRECTION('ref_axis',(1.,0.,0.));
#1420=DIRECTION('',(0.,0.,-1.));
#1421=DIRECTION('center_axis',(0.,0.,-1.));
#1422=DIRECTION('ref_axis',(1.,0.,0.));
#1423=DIRECTION('',(0.,0.,-1.));
#1424=DIRECTION('center_axis',(0.,0.,1.));
#1425=DIRECTION('ref_axis',(1.,0.,0.));
#1426=DIRECTION('',(0.,0.,1.));
#1427=DIRECTION('center_axis',(0.,0.,-1.));
#1428=DIRECTION('ref_axis',(1.,0.,0.));
#1429=DIRECTION('center_axis',(0.,0.,-1.));
#1430=DIRECTION('ref_axis',(-1.,0.,0.));
#1431=DIRECTION('',(1.,0.,0.));
#1432=DIRECTION('center_axis',(0.,0.,-1.));
#1433=DIRECTION('ref_axis',(1.,0.,0.));
#1434=DIRECTION('',(0.,1.,0.));
#1435=DIRECTION('center_axis',(0.,0.,-1.));
#1436=DIRECTION('ref_axis',(1.,0.,0.));
#1437=DIRECTION('',(-1.,0.,0.));
#1438=DIRECTION('center_axis',(0.,0.,-1.));
#1439=DIRECTION('ref_axis',(1.,0.,0.));
#1440=DIRECTION('',(0.,-1.,0.));
#1441=DIRECTION('center_axis',(0.,1.,0.));
#1442=DIRECTION('ref_axis',(0.,0.,1.));
#1443=DIRECTION('',(1.,0.,0.));
#1444=DIRECTION('',(0.,0.,-1.));
#1445=DIRECTION('center_axis',(0.,0.,-1.));
#1446=DIRECTION('ref_axis',(1.,0.,0.));
#1447=DIRECTION('',(0.,0.,-1.));
#1448=DIRECTION('center_axis',(0.,0.,1.));
#1449=DIRECTION('ref_axis',(1.,0.,0.));
#1450=DIRECTION('',(0.,0.,1.));
#1451=DIRECTION('center_axis',(1.,0.,0.));
#1452=DIRECTION('ref_axis',(0.,0.,-1.));
#1453=DIRECTION('',(0.,-1.,0.));
#1454=DIRECTION('center_axis',(0.,0.,-1.));
#1455=DIRECTION('ref_axis',(-0.780821092421311,-0.624754689162067,0.));
#1456=DIRECTION('',(0.,0.,-1.));
#1457=DIRECTION('center_axis',(0.,0.,1.));
#1458=DIRECTION('ref_axis',(1.,0.,0.));
#1459=DIRECTION('center_axis',(0.,1.,0.));
#1460=DIRECTION('ref_axis',(1.,0.,0.));
#1461=DIRECTION('',(1.,0.,0.));
#1462=DIRECTION('center_axis',(0.,0.,-1.));
#1463=DIRECTION('ref_axis',(-0.708062350326255,0.706149918962298,0.));
#1464=DIRECTION('center_axis',(0.,0.,1.));
#1465=DIRECTION('ref_axis',(1.,0.,0.));
#1466=DIRECTION('',(0.,0.,1.));
#1467=DIRECTION('center_axis',(-1.,0.,0.));
#1468=DIRECTION('ref_axis',(0.,0.,1.));
#1469=DIRECTION('',(0.,1.,0.));
#1470=DIRECTION('center_axis',(1.,0.,0.));
#1471=DIRECTION('ref_axis',(0.,1.,0.));
#1472=DIRECTION('',(0.,1.,0.));
#1473=DIRECTION('center_axis',(0.,0.,1.));
#1474=DIRECTION('ref_axis',(1.,0.,0.));
#1475=CARTESIAN_POINT('',(0.,0.,0.));
#1476=CARTESIAN_POINT('Origin',(949.5300186647,-302.761464143322,-8.));
#1477=CARTESIAN_POINT('',(962.470037734057,-302.761464143322,-10.));
#1478=CARTESIAN_POINT('',(962.470037734057,-301.450014318107,-6.49000021326356));
#1479=CARTESIAN_POINT('Origin',(962.470037734057,-302.761464143322,-8.));
#1480=CARTESIAN_POINT('',(949.5300186647,-302.761464143322,-10.));
#1481=CARTESIAN_POINT('',(949.5300186647,-302.761464143322,-10.));
#1482=CARTESIAN_POINT('',(949.5300186647,-301.450014318107,-6.49000021326356));
#1483=CARTESIAN_POINT('Origin',(949.5300186647,-302.761464143322,-8.));
#1484=CARTESIAN_POINT('',(949.5300186647,-301.450014318107,-6.49000021326356));
#1485=CARTESIAN_POINT('Origin',(920.234418827531,-298.450014318107,-8.));
#1486=CARTESIAN_POINT('',(949.5300186647,-298.450014318107,-10.));
#1487=CARTESIAN_POINT('',(947.5300186647,-296.450014318107,-8.));
#1488=CARTESIAN_POINT('Origin',(947.5300186647,-298.450014318107,-8.));
#1489=CARTESIAN_POINT('',(897.11254275305,-298.450014318107,-10.));
#1490=CARTESIAN_POINT('',(920.234418827531,-298.450014318107,-10.));
#1491=CARTESIAN_POINT('',(897.11254275305,-296.450014318107,-8.));
#1492=CARTESIAN_POINT('Origin',(897.11254275305,-298.450014318107,-8.));
#1493=CARTESIAN_POINT('',(920.234418827531,-296.450014318107,-8.));
#1494=CARTESIAN_POINT('Origin',(920.234418827531,-298.450014318107,-8.));
#1495=CARTESIAN_POINT('',(964.470037734057,-296.450014318107,-8.));
#1496=CARTESIAN_POINT('',(962.470037734057,-298.450014318107,-10.));
#1497=CARTESIAN_POINT('Origin',(964.470037734057,-298.450014318107,-8.));
#1498=CARTESIAN_POINT('',(993.600047050975,-296.450014318107,-8.));
#1499=CARTESIAN_POINT('',(920.234418827531,-296.450014318107,-8.));
#1500=CARTESIAN_POINT('',(993.600047050975,-298.450014318107,-10.));
#1501=CARTESIAN_POINT('Origin',(993.600047050975,-298.450014318107,-8.));
#1502=CARTESIAN_POINT('',(920.234418827531,-298.450014318107,-10.));
#1503=CARTESIAN_POINT('Origin',(895.11254275305,-296.450014318107,0.));
#1504=CARTESIAN_POINT('',(964.470037734057,-296.450014318107,2.71999993920326));
#1505=CARTESIAN_POINT('',(964.470037734057,-296.450014318107,-3.24500010663178));
#1506=CARTESIAN_POINT('',(947.5300186647,-296.450014318107,2.71999993920326));
#1507=CARTESIAN_POINT('',(928.791290243553,-296.450014318107,2.71999993920326));
#1508=CARTESIAN_POINT('',(947.5300186647,-296.450014318107,0.359999969601631));
#1509=CARTESIAN_POINT('',(897.11254275305,-296.450014318107,4.5));
#1510=CARTESIAN_POINT('',(897.11254275305,-296.450014318107,0.));
#1511=CARTESIAN_POINT('',(993.600047050975,-296.450014318107,4.5));
#1512=CARTESIAN_POINT('',(920.234418827531,-296.450014318107,4.5));
#1513=CARTESIAN_POINT('',(993.600047050975,-296.450014318107,0.));
#1514=CARTESIAN_POINT('Origin',(947.5300186647,-298.450014318107,0.359999969601631));
#1515=CARTESIAN_POINT('',(949.5300186647,-298.450014318107,0.719999939203262));
#1516=CARTESIAN_POINT('',(949.5300186647,-298.450014318107,0.359999969601631));
#1517=CARTESIAN_POINT('Origin',(947.5300186647,-298.450014318107,2.71999993920326));
#1518=CARTESIAN_POINT('Origin',(928.791290243553,-298.450014318107,2.71999993920326));
#1519=CARTESIAN_POINT('',(962.470037734057,-298.450014318107,0.719999939203262));
#1520=CARTESIAN_POINT('',(928.791290243553,-298.450014318107,0.719999939203262));
#1521=CARTESIAN_POINT('Origin',(964.470037734057,-298.450014318107,2.71999993920326));
#1522=CARTESIAN_POINT('Origin',(964.470037734057,-298.450014318107,-3.24500010663178));
#1523=CARTESIAN_POINT('',(962.470037734057,-298.450014318107,-3.24500010663178));
#1524=CARTESIAN_POINT('Origin',(949.5300186647,-296.450014318107,0.719999939203262));
#1525=CARTESIAN_POINT('',(949.5300186647,-300.450014318107,0.719999939203262));
#1526=CARTESIAN_POINT('',(949.5300186647,-296.450014318107,0.719999939203262));
#1527=CARTESIAN_POINT('',(949.5300186647,-300.450014318107,0.));
#1528=CARTESIAN_POINT('',(949.530018664701,-300.450014318107,0.359999969601631));
#1529=CARTESIAN_POINT('',(949.5300186647,-301.450014318107,0.));
#1530=CARTESIAN_POINT('',(949.530018664701,-315.265640093057,0.));
#1531=CARTESIAN_POINT('',(949.5300186647,-301.450014318107,-5.));
#1532=CARTESIAN_POINT('',(949.530018664701,-301.450014318107,0.359999969601631));
#1533=CARTESIAN_POINT('',(949.5300186647,-301.450014318107,0.719999939203262));
#1534=CARTESIAN_POINT('',(949.530018664701,-315.265640093057,-10.));
#1535=CARTESIAN_POINT('Origin',(962.470037734057,-296.450014318107,0.719999939203262));
#1536=CARTESIAN_POINT('',(962.470037734057,-300.450014318107,0.719999939203262));
#1537=CARTESIAN_POINT('',(962.470037734057,-296.450014318107,0.719999939203262));
#1538=CARTESIAN_POINT('',(979.035042392516,-300.450014318107,0.719999939203262));
#1539=CARTESIAN_POINT('Origin',(962.470037734057,-296.450014318107,-6.49000021326356));
#1540=CARTESIAN_POINT('',(962.470037734057,-315.265640093057,-10.));
#1541=CARTESIAN_POINT('',(962.470037734057,-301.450014318107,-5.));
#1542=CARTESIAN_POINT('',(962.470037734057,-301.450014318107,-6.49000021326356));
#1543=CARTESIAN_POINT('',(962.470037734057,-301.450014318107,0.));
#1544=CARTESIAN_POINT('',(962.470037734057,-301.450014318107,-3.24500010663178));
#1545=CARTESIAN_POINT('',(962.470037734057,-300.450014318107,0.));
#1546=CARTESIAN_POINT('',(962.470037734057,-315.265640093057,0.));
#1547=CARTESIAN_POINT('',(962.470037734057,-300.450014318107,-3.24500010663178));
#1548=CARTESIAN_POINT('Origin',(897.11254275305,-369.712517417909,4.5));
#1549=CARTESIAN_POINT('',(895.11254275305,-369.712517417909,4.5));
#1550=CARTESIAN_POINT('',(897.11254275305,-369.712517417909,6.5));
#1551=CARTESIAN_POINT('Origin',(897.11254275305,-369.712517417909,4.5));
#1552=CARTESIAN_POINT('',(897.11254275305,-371.712517417909,4.5));
#1553=CARTESIAN_POINT('Origin',(897.11254275305,-369.712517417909,4.5));
#1554=CARTESIAN_POINT('Origin',(897.11254275305,-369.712517417909,4.5));
#1555=CARTESIAN_POINT('Origin',(897.11254275305,-369.712517417909,-8.));
#1556=CARTESIAN_POINT('',(897.11254275305,-371.712517417909,-8.));
#1557=CARTESIAN_POINT('',(897.11254275305,-369.712517417909,-10.));
#1558=CARTESIAN_POINT('Origin',(897.11254275305,-369.712517417909,-8.));
#1559=CARTESIAN_POINT('',(895.11254275305,-369.712517417909,-8.));
#1560=CARTESIAN_POINT('Origin',(897.11254275305,-369.712517417909,-8.));
#1561=CARTESIAN_POINT('Origin',(897.11254275305,-369.712517417909,-8.));
#1562=CARTESIAN_POINT('Origin',(897.11254275305,-369.712517417909,0.));
#1563=CARTESIAN_POINT('',(895.11254275305,-369.712517417909,0.));
#1564=CARTESIAN_POINT('',(897.11254275305,-371.712517417909,0.));
#1565=CARTESIAN_POINT('Origin',(993.600047050975,-369.712517417909,4.5));
#1566=CARTESIAN_POINT('',(993.600047050975,-371.712517417909,4.5));
#1567=CARTESIAN_POINT('',(993.600047050975,-369.712517417909,6.5));
#1568=CARTESIAN_POINT('Origin',(993.600047050975,-369.712517417909,4.5));
#1569=CARTESIAN_POINT('',(995.600047050975,-369.712517417909,4.5));
#1570=CARTESIAN_POINT('Origin',(993.600047050975,-369.712517417909,4.5));
#1571=CARTESIAN_POINT('Origin',(993.600047050975,-369.712517417909,4.5));
#1572=CARTESIAN_POINT('Origin',(897.11254275305,-298.450014318107,4.5));
#1573=CARTESIAN_POINT('',(897.11254275305,-298.450014318107,6.5));
#1574=CARTESIAN_POINT('Origin',(897.11254275305,-298.450014318107,4.5));
#1575=CARTESIAN_POINT('',(895.11254275305,-298.450014318107,4.5));
#1576=CARTESIAN_POINT('Origin',(897.11254275305,-298.450014318107,4.5));
#1577=CARTESIAN_POINT('Origin',(897.11254275305,-298.450014318107,4.5));
#1578=CARTESIAN_POINT('Origin',(993.600047050975,-369.712517417909,-8.));
#1579=CARTESIAN_POINT('',(995.600047050975,-369.712517417909,-8.));
#1580=CARTESIAN_POINT('',(993.600047050975,-369.712517417909,-10.));
#1581=CARTESIAN_POINT('Origin',(993.600047050975,-369.712517417909,-8.));
#1582=CARTESIAN_POINT('',(993.600047050975,-371.712517417909,-8.));
#1583=CARTESIAN_POINT('Origin',(993.600047050975,-369.712517417909,-8.));
#1584=CARTESIAN_POINT('Origin',(993.600047050975,-369.712517417909,-8.));
#1585=CARTESIAN_POINT('Origin',(993.600047050975,-369.712517417909,0.));
#1586=CARTESIAN_POINT('',(995.600047050975,-369.712517417909,0.));
#1587=CARTESIAN_POINT('',(993.600047050975,-371.712517417909,0.));
#1588=CARTESIAN_POINT('Origin',(970.478170976494,-369.712517417909,-8.));
#1589=CARTESIAN_POINT('',(970.478170976494,-369.712517417909,-10.));
#1590=CARTESIAN_POINT('',(970.478170976494,-371.712517417909,-8.));
#1591=CARTESIAN_POINT('Origin',(897.11254275305,-298.450014318107,-8.));
#1592=CARTESIAN_POINT('',(895.11254275305,-298.450014318107,-8.));
#1593=CARTESIAN_POINT('Origin',(897.11254275305,-298.450014318107,-8.));
#1594=CARTESIAN_POINT('Origin',(897.11254275305,-298.450014318107,-8.));
#1595=CARTESIAN_POINT('Origin',(897.11254275305,-298.450014318107,0.));
#1596=CARTESIAN_POINT('',(895.11254275305,-298.450014318107,0.));
#1597=CARTESIAN_POINT('Origin',(993.600047050975,-298.450014318107,4.5));
#1598=CARTESIAN_POINT('',(995.600047050975,-298.450014318107,4.5));
#1599=CARTESIAN_POINT('',(993.600047050975,-298.450014318107,6.5));
#1600=CARTESIAN_POINT('Origin',(993.600047050975,-298.450014318107,4.5));
#1601=CARTESIAN_POINT('Origin',(993.600047050975,-298.450014318107,4.5));
#1602=CARTESIAN_POINT('Origin',(993.600047050975,-298.450014318107,4.5));
#1603=CARTESIAN_POINT('Origin',(993.600047050975,-298.450014318107,-8.));
#1604=CARTESIAN_POINT('',(995.600047050975,-298.450014318107,-8.));
#1605=CARTESIAN_POINT('Origin',(993.600047050975,-298.450014318107,-8.));
#1606=CARTESIAN_POINT('Origin',(993.600047050975,-298.450014318107,-8.));
#1607=CARTESIAN_POINT('Origin',(993.600047050975,-298.450014318107,0.));
#1608=CARTESIAN_POINT('',(995.600047050975,-298.450014318107,0.));
#1609=CARTESIAN_POINT('Origin',(993.600047050975,-315.265640093057,-8.));
#1610=CARTESIAN_POINT('',(993.600047050975,-315.265640093057,-10.));
#1611=CARTESIAN_POINT('',(995.600047050975,-315.265640093057,-8.));
#1612=CARTESIAN_POINT('Origin',(920.234418827531,-298.450014318107,4.5));
#1613=CARTESIAN_POINT('',(920.234418827531,-298.450014318107,6.5));
#1614=CARTESIAN_POINT('Origin',(993.600047050975,-315.265640093057,4.5));
#1615=CARTESIAN_POINT('',(993.600047050975,-315.265640093057,6.5));
#1616=CARTESIAN_POINT('',(995.600047050975,-315.265640093057,4.5));
#1617=CARTESIAN_POINT('Origin',(897.11254275305,-352.896891642959,-8.));
#1618=CARTESIAN_POINT('',(897.11254275305,-352.896891642959,-10.));
#1619=CARTESIAN_POINT('',(895.11254275305,-352.896891642959,-8.));
#1620=CARTESIAN_POINT('Origin',(897.11254275305,-352.896891642959,4.5));
#1621=CARTESIAN_POINT('',(897.11254275305,-352.896891642959,6.5));
#1622=CARTESIAN_POINT('',(895.11254275305,-352.896891642959,4.5));
#1623=CARTESIAN_POINT('Origin',(970.478170976494,-369.712517417909,4.5));
#1624=CARTESIAN_POINT('',(970.478170976494,-369.712517417909,6.5));
#1625=CARTESIAN_POINT('',(970.478170976494,-371.712517417909,4.5));
#1626=CARTESIAN_POINT('Origin',(995.600047050975,-371.712517417909,0.));
#1627=CARTESIAN_POINT('Origin',(945.356294902012,-334.081265868008,-10.));
#1628=CARTESIAN_POINT('',(908.39805688238,-304.939330391639,-10.));
#1629=CARTESIAN_POINT('Origin',(903.59805688238,-304.939330391639,-10.));
#1630=CARTESIAN_POINT('',(908.89997979179,-362.699991893023,-10.));
#1631=CARTESIAN_POINT('Origin',(904.09997979179,-362.699991893023,-10.));
#1632=CARTESIAN_POINT('',(991.399977947772,-362.699991893023,-10.));
#1633=CARTESIAN_POINT('Origin',(986.599977947772,-362.699991893023,-10.));
#1634=CARTESIAN_POINT('',(991.916500669828,-304.954607109869,-10.));
#1635=CARTESIAN_POINT('Origin',(987.116500669828,-304.954607109869,-10.));
#1636=CARTESIAN_POINT('Origin',(895.11254275305,-371.712517417909,0.));
#1637=CARTESIAN_POINT('Origin',(995.600047050975,-296.450014318107,0.));
#1638=CARTESIAN_POINT('Origin',(945.356294902012,-334.081265868008,6.5));
#1639=CARTESIAN_POINT('',(991.600047050975,-367.712517417909,6.5));
#1640=CARTESIAN_POINT('',(899.11254275305,-367.712517417909,6.5));
#1641=CARTESIAN_POINT('',(920.234418827531,-367.712517417909,6.5));
#1642=CARTESIAN_POINT('',(899.11254275305,-300.450014318107,6.5));
#1643=CARTESIAN_POINT('',(899.11254275305,-315.265640093057,6.5));
#1644=CARTESIAN_POINT('',(991.600047050975,-300.450014318107,6.5));
#1645=CARTESIAN_POINT('',(970.478170976494,-300.450014318107,6.5));
#1646=CARTESIAN_POINT('',(991.600047050975,-352.896891642959,6.5));
#1647=CARTESIAN_POINT('Origin',(899.11254275305,-296.450014318107,0.));
#1648=CARTESIAN_POINT('',(899.11254275305,-367.712517417909,0.));
#1649=CARTESIAN_POINT('',(899.11254275305,-367.712517417909,5.));
#1650=CARTESIAN_POINT('',(899.11254275305,-300.450014318107,0.));
#1651=CARTESIAN_POINT('',(899.11254275305,-315.265640093057,0.));
#1652=CARTESIAN_POINT('',(899.11254275305,-300.450014318107,5.));
#1653=CARTESIAN_POINT('Origin',(895.11254275305,-367.712517417909,0.));
#1654=CARTESIAN_POINT('',(991.600047050975,-367.712517417909,0.));
#1655=CARTESIAN_POINT('',(991.600047050975,-367.712517417909,0.));
#1656=CARTESIAN_POINT('',(920.234418827531,-367.712517417909,0.));
#1657=CARTESIAN_POINT('Origin',(903.59805688238,-304.939330391639,-9.));
#1658=CARTESIAN_POINT('',(908.39805688238,-304.939330391639,-8.));
#1659=CARTESIAN_POINT('',(908.39805688238,-304.939330391639,-9.));
#1660=CARTESIAN_POINT('Origin',(903.59805688238,-304.939330391639,-8.));
#1661=CARTESIAN_POINT('Origin',(903.59805688238,-304.939330391639,-8.));
#1662=CARTESIAN_POINT('',(901.99805688238,-304.939330391639,-8.));
#1663=CARTESIAN_POINT('Origin',(903.59805688238,-304.939330391639,-8.));
#1664=CARTESIAN_POINT('Origin',(904.09997979179,-362.699991893023,-9.));
#1665=CARTESIAN_POINT('',(908.89997979179,-362.699991893023,-8.));
#1666=CARTESIAN_POINT('',(908.89997979179,-362.699991893023,-9.));
#1667=CARTESIAN_POINT('Origin',(904.09997979179,-362.699991893023,-8.));
#1668=CARTESIAN_POINT('Origin',(904.09997979179,-362.699991893023,-8.));
#1669=CARTESIAN_POINT('',(902.49997979179,-362.699991893023,-8.));
#1670=CARTESIAN_POINT('Origin',(904.09997979179,-362.699991893023,-8.));
#1671=CARTESIAN_POINT('Origin',(986.599977947772,-362.699991893023,-9.));
#1672=CARTESIAN_POINT('',(991.399977947772,-362.699991893023,-8.));
#1673=CARTESIAN_POINT('',(991.399977947772,-362.699991893023,-9.));
#1674=CARTESIAN_POINT('Origin',(986.599977947772,-362.699991893023,-8.));
#1675=CARTESIAN_POINT('Origin',(986.599977947772,-362.699991893023,-8.));
#1676=CARTESIAN_POINT('',(984.999977947772,-362.699991893023,-8.));
#1677=CARTESIAN_POINT('Origin',(986.599977947772,-362.699991893023,-8.));
#1678=CARTESIAN_POINT('Origin',(987.116500669828,-304.954607109869,-9.));
#1679=CARTESIAN_POINT('',(991.916500669828,-304.954607109869,-8.));
#1680=CARTESIAN_POINT('',(991.916500669828,-304.954607109869,-9.));
#1681=CARTESIAN_POINT('Origin',(987.116500669828,-304.954607109869,-8.));
#1682=CARTESIAN_POINT('Origin',(987.116500669828,-304.954607109869,-8.));
#1683=CARTESIAN_POINT('',(985.516500669828,-304.954607109869,-8.));
#1684=CARTESIAN_POINT('Origin',(987.116500669828,-304.954607109869,-8.));
#1685=CARTESIAN_POINT('Origin',(956.000028199379,-301.450014318107,-2.88500013703015));
#1686=CARTESIAN_POINT('',(920.234418827531,-301.450014318107,-5.));
#1687=CARTESIAN_POINT('Origin',(995.600047050975,-300.450014318107,0.));
#1688=CARTESIAN_POINT('',(970.478170976494,-300.450014318107,0.));
#1689=CARTESIAN_POINT('',(991.600047050975,-300.450014318107,0.));
#1690=CARTESIAN_POINT('',(970.478170976494,-300.450014318107,0.));
#1691=CARTESIAN_POINT('',(991.600047050975,-300.450014318107,0.));
#1692=CARTESIAN_POINT('Origin',(895.11254275305,-301.450014318107,0.));
#1693=CARTESIAN_POINT('',(983.416255094432,-301.450014318107,-5.));
#1694=CARTESIAN_POINT('',(920.234418827531,-301.450014318107,-5.));
#1695=CARTESIAN_POINT('',(983.416255094432,-301.450014318107,0.));
#1696=CARTESIAN_POINT('',(983.416255094432,-301.450014318107,0.));
#1697=CARTESIAN_POINT('',(920.234418827531,-301.450014318107,0.));
#1698=CARTESIAN_POINT('Origin',(904.09997979179,-362.699991893023,-5.5));
#1699=CARTESIAN_POINT('',(902.49997979179,-362.699991893023,0.));
#1700=CARTESIAN_POINT('Origin',(904.09997979179,-362.699991893023,0.));
#1701=CARTESIAN_POINT('',(902.49997979179,-362.699991893023,-5.5));
#1702=CARTESIAN_POINT('Origin',(987.116500669828,-304.954607109869,-5.5));
#1703=CARTESIAN_POINT('',(985.516500669828,-304.954607109869,0.));
#1704=CARTESIAN_POINT('Origin',(987.116500669828,-304.954607109869,0.));
#1705=CARTESIAN_POINT('',(985.516500669828,-304.954607109869,-5.5));
#1706=CARTESIAN_POINT('Origin',(903.59805688238,-304.939330391639,-5.5));
#1707=CARTESIAN_POINT('',(901.99805688238,-304.939330391639,0.));
#1708=CARTESIAN_POINT('Origin',(903.59805688238,-304.939330391639,0.));
#1709=CARTESIAN_POINT('',(901.99805688238,-304.939330391639,-5.5));
#1710=CARTESIAN_POINT('Origin',(986.599977947772,-362.699991893023,-5.5));
#1711=CARTESIAN_POINT('',(984.999977947772,-362.699991893023,0.));
#1712=CARTESIAN_POINT('Origin',(986.599977947772,-362.699991893023,0.));
#1713=CARTESIAN_POINT('',(984.999977947772,-362.699991893023,-5.5));
#1714=CARTESIAN_POINT('Origin',(904.09997979179,-362.699991893023,0.));
#1715=CARTESIAN_POINT('',(901.11254275305,-358.08206812367,0.));
#1716=CARTESIAN_POINT('',(901.11254275305,-358.08206812367,-5.));
#1717=CARTESIAN_POINT('',(901.11254275305,-358.08206812367,0.));
#1718=CARTESIAN_POINT('',(908.70157624975,-365.712517417909,0.));
#1719=CARTESIAN_POINT('Origin',(904.09997979179,-362.699991893023,0.));
#1720=CARTESIAN_POINT('',(908.70157624975,-365.712517417909,-5.));
#1721=CARTESIAN_POINT('',(908.70157624975,-365.712517417909,0.));
#1722=CARTESIAN_POINT('Origin',(904.09997979179,-362.699991893023,-5.));
#1723=CARTESIAN_POINT('Origin',(945.356294902012,-334.081265868008,-5.));
#1724=CARTESIAN_POINT('',(981.998381489812,-365.712517417909,-5.));
#1725=CARTESIAN_POINT('',(970.478170976494,-365.712517417909,-5.));
#1726=CARTESIAN_POINT('',(989.600047050975,-358.090264636883,-5.));
#1727=CARTESIAN_POINT('Origin',(986.599977947772,-362.699991893023,-5.));
#1728=CARTESIAN_POINT('',(989.600047050975,-309.178544050777,-5.));
#1729=CARTESIAN_POINT('',(989.600047050975,-315.265640093057,-5.));
#1730=CARTESIAN_POINT('Origin',(987.06447517074,-304.869150214034,-5.));
#1731=CARTESIAN_POINT('',(907.06090230504,-301.450014318107,-5.));
#1732=CARTESIAN_POINT('',(920.234418827531,-301.450014318107,-5.));
#1733=CARTESIAN_POINT('',(901.11254275305,-309.368712768152,-5.));
#1734=CARTESIAN_POINT('Origin',(903.534045967433,-304.994204546337,-5.));
#1735=CARTESIAN_POINT('',(901.11254275305,-352.896891642959,-5.));
#1736=CARTESIAN_POINT('Origin',(995.600047050975,-365.712517417909,0.));
#1737=CARTESIAN_POINT('',(981.998381489812,-365.712517417909,0.));
#1738=CARTESIAN_POINT('',(970.478170976494,-365.712517417909,0.));
#1739=CARTESIAN_POINT('',(981.998381489812,-365.712517417909,0.));
#1740=CARTESIAN_POINT('Origin',(903.534045967433,-304.994204546337,0.));
#1741=CARTESIAN_POINT('',(907.06090230504,-301.450014318107,0.));
#1742=CARTESIAN_POINT('',(907.06090230504,-301.450014318107,0.));
#1743=CARTESIAN_POINT('',(901.11254275305,-309.368712768152,0.));
#1744=CARTESIAN_POINT('Origin',(903.534045967433,-304.994204546337,0.));
#1745=CARTESIAN_POINT('',(901.11254275305,-309.368712768152,0.));
#1746=CARTESIAN_POINT('Origin',(901.11254275305,-371.712517417909,0.));
#1747=CARTESIAN_POINT('',(901.11254275305,-352.896891642959,0.));
#1748=CARTESIAN_POINT('Origin',(987.06447517074,-304.869150214034,0.));
#1749=CARTESIAN_POINT('',(989.600047050975,-309.178544050777,0.));
#1750=CARTESIAN_POINT('',(989.600047050975,-309.178544050777,0.));
#1751=CARTESIAN_POINT('Origin',(987.06447517074,-304.869150214034,0.));
#1752=CARTESIAN_POINT('Origin',(895.11254275305,-301.450014318107,0.));
#1753=CARTESIAN_POINT('',(920.234418827531,-301.450014318107,0.));
#1754=CARTESIAN_POINT('Origin',(986.599977947772,-362.699991893023,0.));
#1755=CARTESIAN_POINT('',(989.600047050975,-358.090264636883,0.));
#1756=CARTESIAN_POINT('Origin',(986.599977947772,-362.699991893023,0.));
#1757=CARTESIAN_POINT('',(989.600047050975,-358.090264636883,0.));
#1758=CARTESIAN_POINT('Origin',(989.600047050975,-296.450014318107,0.));
#1759=CARTESIAN_POINT('',(989.600047050975,-315.265640093057,0.));
#1760=CARTESIAN_POINT('Origin',(991.600047050975,-371.712517417909,0.));
#1761=CARTESIAN_POINT('',(991.600047050975,-352.896891642959,0.));
#1762=CARTESIAN_POINT('Origin',(945.356294902012,-334.081265868008,0.));
#1763=UNCERTAINTY_MEASURE_WITH_UNIT(LENGTH_MEASURE(0.01),#1767,
'DISTANCE_ACCURACY_VALUE',
'Maximum model space distance between geometric entities at asserted c
onnectivities');
#1764=UNCERTAINTY_MEASURE_WITH_UNIT(LENGTH_MEASURE(0.01),#1767,
'DISTANCE_ACCURACY_VALUE',
'Maximum model space distance between geometric entities at asserted c
onnectivities');
#1765=(
GEOMETRIC_REPRESENTATION_CONTEXT(3)
GLOBAL_UNCERTAINTY_ASSIGNED_CONTEXT((#1763))
GLOBAL_UNIT_ASSIGNED_CONTEXT((#1767,#1769,#1770))
REPRESENTATION_CONTEXT('','3D')
);
#1766=(
GEOMETRIC_REPRESENTATION_CONTEXT(3)
GLOBAL_UNCERTAINTY_ASSIGNED_CONTEXT((#1764))
GLOBAL_UNIT_ASSIGNED_CONTEXT((#1767,#1769,#1770))
REPRESENTATION_CONTEXT('','3D')
);
#1767=(
LENGTH_UNIT()
NAMED_UNIT(*)
SI_UNIT(.MILLI.,.METRE.)
);
#1768=(
LENGTH_UNIT()
NAMED_UNIT(*)
SI_UNIT($,.METRE.)
);
#1769=(
NAMED_UNIT(*)
PLANE_ANGLE_UNIT()
SI_UNIT($,.RADIAN.)
);
#1770=(
NAMED_UNIT(*)
SI_UNIT($,.STERADIAN.)
SOLID_ANGLE_UNIT()
);
#1771=SHAPE_DEFINITION_REPRESENTATION(#1772,#1773);
#1772=PRODUCT_DEFINITION_SHAPE('',$,#1775);
#1773=SHAPE_REPRESENTATION('',(#1037),#1765);
#1774=PRODUCT_DEFINITION_CONTEXT('part definition',#1779,'design');
#1775=PRODUCT_DEFINITION('2026-09-06-22-12-11-725','Bottom_case',#1776,
#1774);
#1776=PRODUCT_DEFINITION_FORMATION('',$,#1781);
#1777=PRODUCT_RELATED_PRODUCT_CATEGORY('Bottom_case','Bottom_case',(#1781));
#1778=APPLICATION_PROTOCOL_DEFINITION('international standard',
'automotive_design',2009,#1779);
#1779=APPLICATION_CONTEXT(
'Core Data for Automotive Mechanical Design Process');
#1780=PRODUCT_CONTEXT('part definition',#1779,'mechanical');
#1781=PRODUCT('2026-09-06-22-12-11-725','Bottom_case',$,(#1780));
#1782=PRESENTATION_STYLE_ASSIGNMENT((#1783));
#1783=SURFACE_STYLE_USAGE(.BOTH.,#1784);
#1784=SURFACE_SIDE_STYLE('',(#1785));
#1785=SURFACE_STYLE_FILL_AREA(#1786);
#1786=FILL_AREA_STYLE('Acier - Satin\X\E9',(#1787));
#1787=FILL_AREA_STYLE_COLOUR('Acier - Satin\X\E9',#1788);
#1788=COLOUR_RGB('Acier - Satin\X\E9',0.627450980392157,0.627450980392157,
0.627450980392157);
ENDSEC;
END-ISO-10303-21;
